<?xml version="1.0" encoding="utf-8"?>
<!-- Generator: Adobe Illustrator 23.0.1, SVG Export Plug-In . SVG Version: 6.00 Build 0)  -->
<svg version="1.1" id="Capa_1" xmlns="http://www.w3.org/2000/svg" xmlns:xlink="http://www.w3.org/1999/xlink" x="0px" y="0px"
	 width="200px" height="200px" viewBox="0 0 200 200" style="enable-background:new 0 0 200 200;" xml:space="preserve">
<style type="text/css">
	.st0{fill:#2F2F82;}
	.st1{opacity:0.29;fill:#8E3DCC;enable-background:new    ;}
</style>
<g>
	<path class="st0" d="M192.7,63.7l-17.9-15.9l7.6-22.7c0.7-2.1,0.2-4.4-1.4-5.9c-1.6-1.6-3.9-2.1-5.9-1.4l-22.7,7.6L136.3,7.4
		c-1.5-1.6-3.7-2.3-5.8-1.8c-2.1,0.6-3.7,2.3-4.2,4.4l-4.8,23.5L98,38.3c-2.2,0.4-3.9,2.1-4.4,4.2c-0.6,2.1,0.1,4.4,1.8,5.8
		l17.9,15.9l-7.2,21.4l-28.4,28.4c-6.3-3-14.4-2.1-19.8,3.4L6.1,169.3c-6.8,6.8-6.8,17.8,0,24.6c6.8,6.8,17.8,6.8,24.6,0l51.7-51.7
		c5.3-5.3,6.5-13.3,3.4-19.8l28.4-28.5l21.4-7.1l15.9,17.9c1.4,1.6,3.7,2.3,5.8,1.8c2.1-0.6,3.7-2.3,4.2-4.4l4.8-23.5l23.5-4.8
		c2.2-0.4,3.9-2.1,4.4-4.2C195,67.4,194.3,65.2,192.7,63.7z M74.3,134l-51.7,51.7c-2.3,2.3-5.9,2.3-8.2,0c-2.3-2.3-2.3-5.9,0-8.2
		L66,125.8c2.3-2.3,5.9-2.3,8.2,0C76.5,128,76.5,131.7,74.3,134z M160.4,67.9c-2.3,0.5-4.1,2.2-4.5,4.5l-3.2,15.9l-10.8-12.1
		c-1.5-1.7-3.9-2.4-6.2-1.7l-15.4,5.1l5.1-15.4c0.7-2.2,0.1-4.6-1.7-6.2l-12.1-10.8l15.9-3.2c2.3-0.5,4.1-2.2,4.5-4.5l3.2-15.9
		l10.7,12.1c1.5,1.7,4,2.4,6.2,1.7l15.4-5.1l-5.1,15.4c-0.7,2.2-0.1,4.6,1.7,6.2l12.1,10.8L160.4,67.9z"/>
	<path class="st1" d="M74.3,134l-51.7,51.7c-2.3,2.3-5.9,2.3-8.2,0c-2.3-2.3-2.3-5.9,0-8.2L66,125.8c2.3-2.3,5.9-2.3,8.2,0
		C76.5,128,76.5,131.7,74.3,134z"/>
	<path class="st1" d="M176.3,64.7l-15.9,3.2c-2.3,0.5-4.1,2.2-4.5,4.5l-3.2,15.9l-10.8-12.1c-1.5-1.7-3.9-2.4-6.2-1.7l-15.4,5.1
		l5.1-15.4c0.7-2.2,0.1-4.6-1.7-6.2l-12.1-10.8l15.9-3.2c2.3-0.5,4.1-2.2,4.5-4.5l3.2-15.9l10.7,12.1c1.5,1.7,4,2.4,6.2,1.7
		l15.4-5.1l-5.1,15.4c-0.7,2.2-0.1,4.6,1.7,6.2L176.3,64.7z"/>
	<path class="st0" d="M172.7,84.7c-2.3,2.3-2.3,5.9,0,8.2c2.3,2.3,5.9,2.3,8.2,0c2.3-2.3,2.3-5.9,0-8.2
		C178.6,82.5,175,82.5,172.7,84.7z"/>
	<path class="st0" d="M107.1,19.1c-2.3,2.3-2.3,5.9,0,8.2c2.3,2.3,5.9,2.3,8.2,0s2.3-5.9,0-8.2C113,16.8,109.3,16.8,107.1,19.1z"/>
	<path class="st0" d="M156.3,2.7c-2.3,2.3-2.3,5.9,0,8.2c2.3,2.3,5.9,2.3,8.2,0c2.3-2.3,2.3-5.9,0-8.2
		C162.2,0.4,158.6,0.4,156.3,2.7z"/>
	<circle class="st0" cx="193.2" cy="39.6" r="5.8"/>
</g>
</svg>
