<?xml version="1.0" encoding="utf-8"?>
<!-- Generator: Adobe Illustrator 23.0.1, SVG Export Plug-In . SVG Version: 6.00 Build 0)  -->
<svg version="1.1" id="Capa_1" xmlns="http://www.w3.org/2000/svg" xmlns:xlink="http://www.w3.org/1999/xlink" x="0px" y="0px"
	 width="200px" height="200px" viewBox="0 0 200 200" style="enable-background:new 0 0 200 200;" xml:space="preserve">
<style type="text/css">
	.st0{opacity:0.29;fill:#8E3DCC;enable-background:new    ;}
	.st1{fill:#FFFFFF;}
	.st2{fill:#2F2F82;}
</style>
<g>
	<path class="st0" d="M97,39.9c-28.7,1.4-52,25.7-52.7,54.7c0,18.9,9.1,35.5,23.7,46c3.4,2.4,5.4,6.4,5.4,10.5h54.1
		c0-0.4,0-0.7,0-1.1c0-3.9,1.7-7.2,4.8-9.4c14.2-10.1,23.3-26.7,23.3-45.3C155.4,63.5,129.1,38.2,97,39.9z M116.6,137.2v10.1H82.4
		v-10.1c-1.7-3.4-4.1-6.1-7.1-8.1c-11.2-8.1-17.9-20.9-17.6-34.8C58.1,72.6,76,54,97.6,53h2.4c23.3,0,41.9,18.9,41.6,41.9
		c0,13.5-6.4,26.4-17.6,34.1C121,131.4,118.2,134.1,116.6,137.2z"/>
	<g>
		<path class="st1" d="M83.1,181.4c0,1.2,0.1,2.3,0.4,3.4c1.5,6.2,7.2,10.8,13.8,10.8h5.7c6.6,0,12.2-4.6,13.8-10.8
			c0.3-1.1,0.4-2.2,0.4-3.4H83.1z M103,192.2h-5.7c-4.7,0-8.8-3-10.1-7.4h26.4C111.8,189.2,107.8,192.2,103,192.2z"/>
	</g>
	<path class="st2" d="M103,192.2h-5.7c-4.7,0-8.8-3-10.1-7.4h26.4C111.8,189.2,107.8,192.2,103,192.2z M97,36.5
		c-30.7,1.4-55.4,27-55.8,57.8c-0.3,19.6,8.8,37.8,24.7,49c2.4,1.7,3.7,4.7,3.7,7.8v25c0,2.1,0.7,3.9,1.8,5.4c1.6,2.1,4.2,3.4,7,3.4
		H80c1.5,8.1,8.6,14.2,17.3,14.2h5.7c8.6,0,15.7-6,17.3-14.2h1c2.9,0,5.4-1.3,7-3.4c1.2-1.5,1.8-3.4,1.8-5.4v-23.5
		c0.3-0.5,0.6-1,0.7-1.5c0-3,1.4-6.1,3.7-7.8c15.5-11.2,24.7-29.1,24.7-48C159.1,61.8,130.8,34.8,97,36.5z M124,147.6H76
		c-0.7-4.1-3-7.8-6.1-9.8c-14.2-9.8-22.3-26-22-43.2c0.3-27.4,22-50,49.3-51.4c30.1-1.7,55.1,22.3,55.1,52c0,16.9-8.1,32.8-22,42.6
		C127,140.2,124.7,143.6,124,147.6z M124,176h-0.3c0,1.4-1,2-2,2H78.7c-1.4,0-2-1-2-2v-21.6H124V176z"/>
	<g>
		<path class="st2" d="M196.6,97.3c0,1.5-0.9,2.6-2.1,3.1l0.7-0.7c1.4-1.4,1.4-3.4,0-4.7l-0.8-0.8C195.8,94.5,196.6,95.7,196.6,97.3
			z"/>
		<path class="st2" d="M195.3,99.7l-9.5,9.5c-1.4,1.7-3.4,1.7-4.7,0.3c-1.4-1.4-1.4-3.4,0-4.7l4.1-4.1h-15.9c-2,0-3.4-1.4-3.4-3.4
			c0-2,1.4-3.4,3.4-3.4h15.4l-3.5-3.7c-1.4-1.4-1.4-3.4,0-4.7c1.4-1.4,3.4-1.4,4.7,0l8.6,8.6l0.8,0.8
			C196.6,96.3,196.6,98.3,195.3,99.7z"/>
		<path class="st2" d="M31.1,100.7H14.7l4.3,4.1c1.4,1.4,1.4,3.4,0,4.7c-1.4,1.4-3.4,1.4-4.7,0L4.4,100c-0.7-0.7-1.1-1.6-1-2.5
			c0-0.1,0-0.1,0-0.2c0-1.6,0.8-2.8,2.2-3.2l8.3-8.3c1.4-1.4,3.4-1.4,4.7,0c1.4,1.4,1.4,3.4,0,4.7l-3.4,3.4h15.5
			c2,0,3.4,1.4,3.4,3.4C34.5,99.3,32.8,100.7,31.1,100.7z"/>
		<path class="st2" d="M111.8,16.2c-1,1.4-3.4,1.4-4.7,0l-3.7-3.7v15.9c0,1.7-1.4,3.4-3.4,3.4c-2,0-3.4-1.4-3.4-3.4V12.5l-3.7,3.7
			c-1.4,1.4-3.4,1.4-4.7,0c-1.4-1.4-1.4-3.4,0-4.7l8.9-8.9c0.5-1,1.6-1.6,2.9-1.6c1.4,0,2.4,0.6,2.9,1.6l8.9,8.9
			C113.2,12.8,113.2,14.9,111.8,16.2z"/>
		<rect x="81.4" y="162.8" class="st2" width="6.8" height="6.8"/>
		<rect x="96.6" y="162.8" class="st2" width="6.8" height="6.8"/>
		<rect x="111.8" y="162.8" class="st2" width="6.8" height="6.8"/>
	</g>
	<path class="st0" d="M113.5,184.8c-1.7,4.4-5.7,7.4-10.5,7.4h-5.7c-4.7,0-8.8-3-10.1-7.4H113.5z"/>
</g>
</svg>
