<svg xmlns="http://www.w3.org/2000/svg" width="24" height="24" viewBox="0 0 24 24">
  <defs>
    <style>
      .cls-1 {
        fill: #2f2f82;
      }
    </style>
  </defs>
  <title>interface</title>
  <g id="Layer_2" data-name="Layer 2">
    <g id="Layer_1-2" data-name="Layer 1">
      <g>
        <path class="cls-1" d="M24,12a.7.7,0,0,0-.3-.6L21.2,9.9l2.5-1.5a.9.9,0,0,0,.3-.6.6.6,0,0,0-.3-.6L12.4.1h-.8L.3,7.2a.6.6,0,0,0-.3.6.9.9,0,0,0,.3.6L2.8,9.9.3,11.4a.7.7,0,0,0,0,1.2l2.5,1.5L.3,15.6a.7.7,0,0,0-.3.6.6.6,0,0,0,.3.6l11.3,7.1h.8l11.3-7.1a.6.6,0,0,0,.3-.6.7.7,0,0,0-.3-.6l-2.5-1.5,2.5-1.5A.7.7,0,0,0,24,12ZM2,7.8,12,1.5,22,7.8,12,14Zm20,8.4L12,22.5,2,16.2l2.1-1.3,7.5,4.7h.8l7.5-4.7Zm-10,2L2,12l2.1-1.3,7.5,4.7h.8l7.5-4.7L22,12Z"/>
        <path class="cls-1" d="M22,7.8,12,14,2,7.8,12,1.5Z"/>
      </g>
    </g>
  </g>
</svg>
