<svg xmlns="http://www.w3.org/2000/svg" width="24" height="24" viewBox="0 0 24 24">
  <defs>
    <style>
      .cls-1 {
        fill: #2f2f82;
      }
    </style>
  </defs>
  <title>mobile and web</title>
  <g id="Layer_2" data-name="Layer 2">
    <g id="Layer_1-2" data-name="Layer 1">
      <g id="surface1">
        <path class="cls-1" d="M2.4,1.6v4h.8v-4A.9.9,0,0,1,4,.8H20a.9.9,0,0,1,.8.8h.8A1.6,1.6,0,0,0,20,0H4A1.6,1.6,0,0,0,2.4,1.6Z"/>
        <path class="cls-1" d="M21.6,20.8v1.6A1.6,1.6,0,0,1,20,24H1.6A1.6,1.6,0,0,1,0,22.4V21.2a.4.4,0,0,1,.4-.4h2v-8h.8v8H18.8a.4.4,0,0,1,.4.4v1.2a.8.8,0,0,0,.8.8.7.7,0,0,0,.8-.8V20.8Z"/>
        <path class="cls-1" d="M8.8,6.8v4.8a.4.4,0,0,1-.4.4H.4a.4.4,0,0,1-.4-.4V6.8a.4.4,0,0,1,.4-.4h8A.4.4,0,0,1,8.8,6.8Z"/>
        <path class="cls-1" d="M23.6,2.4H10a.4.4,0,0,0-.4.4v8a.4.4,0,0,0,.4.4H23.6a.4.4,0,0,0,.4-.4v-8A.4.4,0,0,0,23.6,2.4Zm-.4,6.1L21,7.3h-.4L17.7,8.7,14.2,6.5h-.4l-3.4,2V3.2H23.2Z"/>
        <path class="cls-1" d="M20.4,5.4a1.4,1.4,0,1,1-2.8,0,1.4,1.4,0,1,1,2.8,0Z"/>
        <path class="cls-1" d="M4,13.2V18a.4.4,0,0,0,.4.4h10a.4.4,0,0,0,.4-.4V13.2a.4.4,0,0,0-.4-.4H4.4A.4.4,0,0,0,4,13.2Zm.8.4H14v4H4.8Z"/>
        <path class="cls-1" d="M5.6,14.4H7.2v.8H5.6Z"/>
        <path class="cls-1" d="M8,14.4h3.6v.8H8Z"/>
        <path class="cls-1" d="M12.4,14.4h.8v.8h-.8Z"/>
        <path class="cls-1" d="M5.6,16h4.8v.8H5.6Z"/>
        <path class="cls-1" d="M11.2,16h2v.8h-2Z"/>
        <path class="cls-1" d="M4,1.6h.8v.8H4Z"/>
        <path class="cls-1" d="M5.6,1.6h.8v.8H5.6Z"/>
        <path class="cls-1" d="M7.2,1.6H8v.8H7.2Z"/>
        <path class="cls-1" d="M23.6,14.4H16a.4.4,0,0,0-.4.4v4.8a.4.4,0,0,0,.4.4h7.6a.4.4,0,0,0,.4-.4V14.8A.4.4,0,0,0,23.6,14.4Zm-.4,4.8H16.4v-4h6.8Z"/>
        <path class="cls-1" d="M17.2,16H18v.8h-.8Z"/>
        <path class="cls-1" d="M17.2,17.6H18v.8h-.8Z"/>
        <path class="cls-1" d="M18.8,16h3.6v.8H18.8Z"/>
        <path class="cls-1" d="M18.8,17.6h3.6v.8H18.8Z"/>
        <path class="cls-1" d="M20.8,12h.8v1.6h-.8Z"/>
      </g>
    </g>
  </g>
</svg>
