<?xml version="1.0" encoding="utf-8"?>
<!-- Generator: Adobe Illustrator 23.0.1, SVG Export Plug-In . SVG Version: 6.00 Build 0)  -->
<svg version="1.1" id="Capa_1" xmlns="http://www.w3.org/2000/svg" xmlns:xlink="http://www.w3.org/1999/xlink" x="0px" y="0px"
	 viewBox="0 0 512 512" style="enable-background:new 0 0 512 512;" xml:space="preserve">
<style type="text/css">
	.st0{fill:#2F2F82;}
	.st1{opacity:0.29;}
	.st2{fill:#8E3DCC;}
</style>
<g>
	<g>
		<g>
			<path class="st0" d="M436,400.5c-21.50488,0-39-17.49512-39-39c0-16.28564,10.28711-31.00488,25.59863-36.62646l4.25586-1.5625
				l-0.34082-4.521c-5.49707-72.90479-58.43359-136.28223-128.73438-154.12256l-4.69043-1.19043l-2.15625,4.33154
				C284.27148,181.18848,270.88574,189.5,256,189.5c-14.88623,0-28.27197-8.31201-34.93311-21.69189l-2.15674-4.33203
				l-4.69043,1.19043c-70.2998,17.84033-123.23682,81.21826-128.73242,154.12256l-0.34082,4.52051l4.25537,1.56299
				C104.71289,330.49512,115,345.21436,115,361.5c0,21.50488-17.49512,39-39,39s-39-17.49512-39-39
				c0-16.64014,10.59277-31.46289,26.35938-36.88428l3.77979-1.2998l0.25684-3.98877
				c3.9126-60.77539,36.88135-116.46094,88.19141-148.9585l17.47656-11.06885H84V180.5c0,4.9624-4.0376,9-9,9H15
				c-4.9624,0-9-4.0376-9-9v-60c0-4.9624,4.0376-9,9-9h60c4.9624,0,9,4.0376,9,9v21h133.81836l1.4165-3.99414
				C224.75195,121.95068,239.52637,111.5,256,111.5c16.47266,0,31.24805,10.45117,36.76563,26.00586l1.41602,3.99414H428v-21
				c0-4.9624,4.03711-9,9-9h60c4.96289,0,9,4.0376,9,9v60c0,4.9624-4.03711,9-9,9h-60c-4.96289,0-9-4.0376-9-9v-21h-89.06445
				l17.47754,11.06885c51.31836,32.50244,84.28711,88.11328,88.19141,148.7583l0.25684,3.98877l3.7793,1.2998
				C464.40723,330.0376,475,344.85986,475,361.5C475,383.00488,457.50488,400.5,436,400.5z M436,340.5c-11.5791,0-21,9.42041-21,21
				c0,11.5791,9.4209,21,21,21s21-9.4209,21-21C457,349.92041,447.5791,340.5,436,340.5z M76,340.5c-11.57959,0-21,9.42041-21,21
				c0,11.5791,9.42041,21,21,21s21-9.4209,21-21C97,349.92041,87.57959,340.5,76,340.5z M446,171.5h42v-42h-42V171.5z M256,129.5
				c-11.57959,0-21,9.42041-21,21s9.42041,21,21,21c11.5791,0,21-9.42041,21-21S267.5791,129.5,256,129.5z M24,171.5h42v-42H24
				V171.5z"/>
		</g>
	</g>
	<g class="st1">
		<g>
			<circle class="st2" cx="76" cy="361.5" r="21"/>
			<rect x="24" y="129.5" class="st2" width="42" height="42"/>
			<circle class="st2" cx="256" cy="150.5" r="21"/>
			<rect x="446" y="129.5" class="st2" width="42" height="42"/>
			<circle class="st2" cx="436" cy="361.5" r="21"/>
		</g>
	</g>
</g>
</svg>
