<?xml version="1.0" encoding="utf-8"?>
<!-- Generator: Adobe Illustrator 23.0.1, SVG Export Plug-In . SVG Version: 6.00 Build 0)  -->
<svg version="1.1" id="Layer_1" xmlns="http://www.w3.org/2000/svg" xmlns:xlink="http://www.w3.org/1999/xlink" x="0px" y="0px"
	 viewBox="0 0 512 512" style="enable-background:new 0 0 512 512;" xml:space="preserve">
<style type="text/css">
	.st0{fill:#2F2F82;}
	.st1{opacity:0.29;fill:#8E3DCC;}
	.st2{fill:#FFFFFF;}
</style>
<path class="st0" d="M154.66313,426.67044H58.66614C26.30387,426.67044,0,400.36658,0,368.0043V58.68195
	C0,26.31967,26.30387,0.01581,58.66614,0.01581h314.65424c32.36227,0,58.66614,26.30387,58.66614,58.66614v95.99699
	c0,8.83176-7.16776,15.99951-15.99951,15.99951s-15.99948-7.16776-15.99948-15.99951V58.68195
	c0-14.69876-11.96838-26.66714-26.66714-26.66714H58.66614c-14.69876,0-26.66714,11.96838-26.66714,26.66714V368.0043
	c0,14.69876,11.96838,26.66714,26.66714,26.66714h95.99699c8.83176,0,15.99951,7.16776,15.99951,15.99951
	S163.49489,426.67044,154.66313,426.67044z"/>
<path class="st0" d="M507.31,484.66998L421.08002,398.44c16.85999-21.67999,26.90997-48.90002,26.90997-78.42999
	c0-70.60004-57.40997-128-128-128s-128,57.39996-128,128c0,70.58997,57.41003,127.98999,128,127.98999
	c29.54004,0,56.78003-10.06,78.46002-26.91998L484.67999,507.31c3.10999,3.13,7.21002,4.69,11.29999,4.69
	c4.10004,0,8.20001-1.56,11.33002-4.69C513.56,501.04999,513.56,490.91998,507.31,484.66998z M223.98999,320.01001
	c0-52.92999,43.07001-96,96-96s96,43.07001,96,96c0,26.15997-10.52997,49.90997-27.56,67.23999l-0.06,0.06
	c-0.34998,0.35999-0.70001,0.71002-1.06,1.04999c-0.01001,0.02002-0.02997,0.04004-0.04999,0.06
	C369.92999,405.46997,346.16998,416,319.98999,416C267.06,416,223.98999,372.92999,223.98999,320.01001z"/>
<path class="st1" d="M415.98999,320.01001c0,26.15997-10.52997,49.90997-27.56,67.23999l-0.06,0.06
	c-0.34998,0.35999-0.70001,0.71002-1.06,1.04999c-0.01001,0.02002-0.02997,0.04004-0.04999,0.06
	C369.92999,405.46997,346.16998,416,319.98999,416c-52.92999,0-96-43.07001-96-95.98999c0-52.92999,43.07001-96,96-96
	S415.98999,267.08002,415.98999,320.01001z"/>
<path class="st2" d="M388.37,387.31c-0.34998,0.35999-0.70001,0.71002-1.06,1.04999c0.16998-0.19,0.34003-0.35999,0.52002-0.53998
	S388.19,387.46997,388.37,387.31z"/>
</svg>
