<?xml version="1.0" encoding="utf-8"?>
<!-- Generator: Adobe Illustrator 23.0.1, SVG Export Plug-In . SVG Version: 6.00 Build 0)  -->
<svg version="1.1" id="Layer_1" xmlns="http://www.w3.org/2000/svg" xmlns:xlink="http://www.w3.org/1999/xlink" x="0px" y="0px"
	 viewBox="0 0 512 512" style="enable-background:new 0 0 512 512;" xml:space="preserve">
<style type="text/css">
	.st0{fill:#2F2F82;}
	.st1{opacity:0.29;fill:#8E3DCC;}
</style>
<g>
	<path class="st0" d="M467.58862,126.61134l24.05603-24.05225c3.99609-3.99988,5.31299-9.95618,3.3717-15.26538
		c-1.94128-5.31299-6.78882-9.01392-12.42725-9.49072l-44.62683-3.76526l-3.76526-44.62683
		c-0.47302-5.63464-4.17773-10.48218-9.48694-12.42346c-5.3092-1.94507-11.2655-0.62817-15.26538,3.3717l-24.05603,24.05225
		C346.4873,20.55969,302.00806,8,256,8C189.75793,8,127.47791,33.79675,80.63733,80.63733S8,189.75793,8,256
		s25.79675,128.52209,72.63733,175.36267S189.75793,504,256,504s128.52209-25.79675,175.36267-72.63733S504,322.24207,504,256
		C504,209.99194,491.44031,165.51648,467.58862,126.61134z M410.03125,88.70899c0.5979,7.06127,6.19849,12.66186,13.25977,13.25976
		l25.67566,2.16455l-34.75391,34.75391l-37.90234-3.19763l-3.19763-37.90234l34.75391-34.75391L410.03125,88.70899z M305.40625,256
		c0,27.24231-22.16394,49.40625-49.40625,49.40625S206.59375,283.24231,206.59375,256S228.75769,206.59375,256,206.59375
		c8.34412,0,16.20386,2.08508,23.10242,5.75195l-33.37646,33.38025c-5.67627,5.67249-5.67627,14.87183,0,20.5481
		c2.83435,2.83813,6.5542,4.2572,10.27405,4.2572s7.4397-1.41907,10.27405-4.2572l33.38025-33.37646
		C303.32117,239.79614,305.40625,247.65588,305.40625,256z M300.22571,191.22241
		c-12.60132-8.62793-27.83264-13.69116-44.22571-13.69116c-43.26831,0-78.46875,35.20044-78.46875,78.46875
		S212.73169,334.46875,256,334.46875S334.46875,299.26831,334.46875,256c0-16.39307-5.06323-31.62439-13.69116-44.22571
		l41.48975-41.48975C381.22229,193.73889,392.59375,223.5658,392.59375,256c0,75.31653-61.27722,136.59375-136.59375,136.59375
		S119.40625,331.31653,119.40625,256S180.68347,119.40625,256,119.40625c32.4342,0,62.26111,11.37146,85.71545,30.32642
		L300.22571,191.22241z M410.81079,410.81079C369.46106,452.16431,314.48071,474.9375,256,474.9375
		s-113.46106-22.77319-154.81079-64.12671C59.83569,369.46106,37.0625,314.48071,37.0625,256s22.77319-113.46106,64.12671-154.81079
		C142.53894,59.83569,197.51929,37.06251,256,37.06251c38.25806,0,75.31653,9.8275,108.18213,28.55541L347.79285,82.0072
		c-2.64893,2.64893-4.15881,6.19849-4.25342,9.9032c-0.01135,0.52979,0.00378,1.05957,0.04541,1.59314l1.95642,23.18567
		C319.70667,100.02368,288.96399,90.34375,256,90.34375c-91.34253,0-165.65625,74.31372-165.65625,165.65625
		S164.65747,421.65625,256,421.65625S421.65625,347.34253,421.65625,256c0-32.96399-9.67993-63.70667-26.34546-89.54126
		l23.18567,1.95642c0.40869,0.03027,0.81738,0.04919,1.22229,0.04919c0.06812,0,0.14001-0.00757,0.20813-0.01135
		c0.19299,0,0.3822-0.01514,0.5752-0.02649c0.31409-0.01892,0.63196-0.03783,0.94226-0.07568
		c0.19299-0.02649,0.38599-0.05676,0.57898-0.08704c0.30652-0.04919,0.60925-0.10596,0.91199-0.17407
		c0.19299-0.04541,0.3822-0.0946,0.57141-0.1438c0.29517-0.07947,0.58655-0.17029,0.87793-0.26868
		c0.18921-0.06433,0.37463-0.12866,0.56006-0.20056c0.28381-0.10974,0.56384-0.23083,0.84387-0.36328
		c0.17786-0.07947,0.35571-0.15894,0.53357-0.24976c0.28003-0.1438,0.55249-0.30273,0.82117-0.46167
		c0.16272-0.09839,0.32544-0.18921,0.48438-0.2876c0.2876-0.18921,0.56384-0.39355,0.84009-0.60168
		c0.12866-0.09839,0.26111-0.18542,0.38599-0.2876c0.39355-0.31787,0.77576-0.65466,1.13904-1.01794l16.38928-16.38928
		C465.10999,180.68347,474.9375,217.74194,474.9375,256C474.9375,314.48071,452.16431,369.46106,410.81079,410.81079z"/>
	<path class="st1" d="M448.96628,104.12807l-34.74905,34.75876l-37.9072-3.19687l-3.19684-37.90719l34.75873-34.74906
		l2.16031,25.67187c0.60062,7.06217,6.20001,12.66158,13.26218,13.26219L448.96628,104.12807z"/>
	<path class="st1" d="M305.40625,256c0,27.24124-22.16501,49.40625-49.40625,49.40625S206.59375,283.24124,206.59375,256
		S228.75876,206.59375,256,206.59375c8.34091,0,16.20721,2.08284,23.10474,5.75438l-33.38316,33.37344
		c-5.66716,5.67686-5.66716,14.87999,0,20.55684c2.83844,2.83844,6.55846,4.25284,10.27843,4.25284
		c3.72003,0,7.44-1.4144,10.27841-4.25284l33.37347-33.38307C303.32349,239.79283,305.40625,247.65907,305.40625,256z"/>
	<g>
		<path class="st0" d="M256,256"/>
	</g>
</g>
</svg>
