<?xml version="1.0" encoding="utf-8"?>
<!-- Generator: Adobe Illustrator 23.0.1, SVG Export Plug-In . SVG Version: 6.00 Build 0)  -->
<svg version="1.1" id="Capa_1" xmlns="http://www.w3.org/2000/svg" xmlns:xlink="http://www.w3.org/1999/xlink" x="0px" y="0px"
	 viewBox="0 0 512 512" style="enable-background:new 0 0 512 512;" xml:space="preserve">
<style type="text/css">
	.st0{fill:#2F2F82;}
	.st1{opacity:0.29;fill:#8E3DCC;}
</style>
<g>
	<path class="st0" d="M328.08002,6.26367c-48.13,0-93.63,19.28003-127.09003,53.39001
		c-0.20001,0.19-0.39996,0.39001-0.58002,0.59003c-3.46997,3.56-6.81,7.28998-10,11.16998L186.44,76.2337l-50.88-50.88h48.08002
		V5.70367h-81.63v81.63h19.64996V39.24371l53.57001,53.57001l-2.13995,3.76001
		c-17.79004,31.20996-25.62006,66.72998-22.66003,102.69995c3.03003,36.72003,17.19,71.13,40.96002,99.51001l3.31,3.96002
		l-1.17999,1.19l-51.88,52.39001L115.06,329.74371L8.02002,436.7937l67.12,67.12l107.03998-107.03998l-26.64996-26.65002
		l51.81995-52.32001l1.18005-1.19l4,3.41003c32.22998,27.5,73.25995,42.64996,115.54999,42.64996
		c49.13995,0,93.70996-19.98999,125.97998-52.26996c0.19-0.17999,0.37-0.37,0.54999-0.55005
		c31.96002-32.22998,51.72003-76.57996,51.72003-125.44C506.33002,86.2337,426.37,6.26367,328.08002,6.26367z M75.14001,476.12372
		L35.81,436.7937l79.25-79.25l39.33002,39.33002L75.14001,476.12372z M328.08002,343.12372
		c-87.45001-0.01001-158.60004-71.15002-158.60004-158.61005c0-24.67999,5.55005-48.35999,16.5-70.37994l3.51001-7.06
		l38.19,38.18994l-1.19,3.37006c-4.03998,11.47998-6.08997,23.56-6.08997,35.88995c0,59.37,48.29999,107.67999,107.67999,107.67999
		c28.77997,0,55.82996-11.19995,76.15997-31.51996c20.33002-20.33002,31.52002-47.38,31.52002-76.16003
		c0-28.78998-11.19-55.82996-31.52002-76.15997s-47.37-31.53003-76.15997-31.53003c-34.86005,0-66.66003,16.23004-87.23999,44.53003
		l-3.90002,5.37l-36.45001-36.45001l3.13-3.95996c30.34998-38.39001,75.71002-60.40002,124.46002-60.40002
		c87.45001,0,158.59998,71.14001,158.59998,158.58997C486.67999,271.97369,415.53003,343.11371,328.08002,343.12372z
		 M304.03998,221.63373L351.56,174.11371l53.46002,53.45001l-2.42004,3.82996
		c-16.27997,25.77002-44.13995,41.16003-74.51996,41.16003c-48.54004,0-88.03003-39.48999-88.03003-88.04004
		c0-4.37994,0.32001-8.79999,0.97003-13.12l1.64996-11.13995L304.03998,221.63373z M251.33002,141.12372l2.45996-3.84003
		c16.30005-25.53998,44.12-40.78998,74.40002-40.78998c23.44,0,45.51001,9.14996,62.14001,25.77997
		c19.77997,19.78003,28.84998,47.06,24.88,74.86005l-1.60004,11.22998L351.56,146.31372l-47.52002,47.51996L251.33002,141.12372z"/>
	<rect x="269.20898" y="424.66754" class="st0" width="236.58496" height="19.65234"/>
	<rect x="176.23877" y="486.64703" class="st0" width="174.604" height="19.65234"/>
</g>
<g>
	<path class="st1" d="M486.67999,184.51367c0,87.46002-71.14996,158.60004-158.59998,158.61005
		c-87.45001-0.01001-158.60004-71.15002-158.60004-158.61005c0-24.67999,5.55005-48.35999,16.5-70.37994l3.51001-7.06
		l38.19,38.18994l-1.19,3.37006c-4.03998,11.47998-6.08997,23.56-6.08997,35.88995c0,59.37,48.29999,107.67999,107.67999,107.67999
		c28.77997,0,55.82996-11.19995,76.15997-31.51996c20.33002-20.33002,31.52002-47.38,31.52002-76.16003
		c0-28.78998-11.19-55.82996-31.52002-76.15997s-47.37-31.53003-76.15997-31.53003c-34.86005,0-66.66003,16.23004-87.23999,44.53003
		l-3.90002,5.37l-36.45001-36.45001l3.13-3.95996c30.34998-38.39001,75.71002-60.40002,124.46002-60.40002
		C415.53003,25.92371,486.67999,97.06372,486.67999,184.51367z"/>
	
		<rect x="39.06179" y="389.02319" transform="matrix(0.70711 -0.70711 0.70711 0.70711 -266.89178 189.33363)" class="st1" width="112.07642" height="55.62104"/>
</g>
</svg>
