<svg xmlns="http://www.w3.org/2000/svg" width="24" height="24" viewBox="0 0 24 24">
  <defs>
    <style>
      .cls-1 {
        fill: #2f2f82;
      }
    </style>
  </defs>
  <title>wireframe</title>
  <g id="Layer_2" data-name="Layer 2">
    <g id="Layer_1-2" data-name="Layer 1">
      <g>
        <path class="cls-1" d="M23.8,4.7l-1.1-1A2.7,2.7,0,0,0,23,2.5a2.5,2.5,0,0,0-5,0A2.5,2.5,0,0,0,20.5,5a2.7,2.7,0,0,0,1.2-.3l1,1.1.6.2.5-.2A.8.8,0,0,0,23.8,4.7ZM19.5,2.5a1.1,1.1,0,0,1,1-1,1,1,0,0,1,0,2A1.1,1.1,0,0,1,19.5,2.5Z"/>
        <path class="cls-1" d="M16,1.8V4.3A1.8,1.8,0,0,1,14.3,6H1.8A1.8,1.8,0,0,1,0,4.3V1.8A1.8,1.8,0,0,1,1.8,0H14.3A1.8,1.8,0,0,1,16,1.8Z"/>
        <path class="cls-1" d="M23.3,8.3h-.2L22.3,8H1.8l-.9.2H.7A2.1,2.1,0,0,0,0,9.8V22.3a1.9,1.9,0,0,0,.7,1.4H.9l.9.2H22.3l.8-.2h.2a1.9,1.9,0,0,0,.7-1.4V9.8A2.1,2.1,0,0,0,23.3,8.3ZM20.5,9.5,12,15.1,3.5,9.5ZM1.5,22V10l9.2,6Zm2,.5L12,16.9l8.5,5.6Zm19-.5-9.1-6,9.1-6Z"/>
      </g>
    </g>
  </g>
</svg>
