<svg xmlns="http://www.w3.org/2000/svg" width="24" height="24" viewBox="0 0 24 24">
  <defs>
    <style>
      .cls-1 {
        fill: #2f2f82;
      }
    </style>
  </defs>
  <title>illustration</title>
  <g id="Layer_2" data-name="Layer 2">
    <g id="Layer_1-2" data-name="Layer 1">
      <g id="Outline">
        <path class="cls-1" d="M11.9,23.3.7,12.1H.1a.4.4,0,0,0-.1.3V23.6a.4.4,0,0,0,.4.4H11.6a.4.4,0,0,0,.4-.4A.4.4,0,0,0,11.9,23.3ZM6,21.6H2.8a.4.4,0,0,1-.4-.4V18a.4.4,0,0,1,.1-.3h.6l3.2,3.2a.4.4,0,0,1,.1.3A.4.4,0,0,1,6,21.6Z"/>
        <path class="cls-1" d="M15.8,7.2,12.2,5.6h-.4L8.2,7.2a.5.5,0,0,0-.2.4V12a.5.5,0,0,0,.2.4L11.8,14h.4l3.6-1.6A.5.5,0,0,0,16,12V7.6A.5.5,0,0,0,15.8,7.2ZM11.6,13,8.8,11.8V8.2l2.8,1.3ZM12,8.8,9.4,7.6,12,6.4l2.6,1.2Zm3.2,3L12.4,13V9.5l2.8-1.3Z"/>
        <path class="cls-1" d="M23.6,18.4H21.2V12.2l2.4-2.4a1.6,1.6,0,1,0-2.2-2.2l-.2.2V4.4a.4.4,0,0,0-.1-.3l-4-4H4.4A1.6,1.6,0,0,0,2.8,1.6V13.2h.8V1.6A.9.9,0,0,1,4.4.8h12V3.2A1.6,1.6,0,0,0,18,4.8h2.4V8.6l-6.3,6.3v.2l-.4,2c0,.2.1.5.3.5h.2l2-.4h.2L20.4,13v5.4h-8a.4.4,0,0,0-.4.4V20H10v.8h2V22a.4.4,0,0,0,.4.4H23.6A.4.4,0,0,0,24,22V18.8A.4.4,0,0,0,23.6,18.4ZM16,16.2l-1-1L21.2,9l1,1Zm7.2,5.4H12.8V19.2h.8V20h.8v-.8h.8V20H16v-.8h.8V20h.8v-.8h.8V20h.8v-.8H20V20h.8v-.8h.8V20h.8v-.8h.8Z"/>
      </g>
    </g>
  </g>
</svg>
