<svg xmlns="http://www.w3.org/2000/svg" width="24" height="18.4" viewBox="0 0 24 18.4">
  <defs>
    <style>
      .cls-1 {
        fill: #2f2f82;
      }
    </style>
  </defs>
  <title>responsive</title>
  <g id="Layer_2" data-name="Layer 2">
    <g id="Layer_1-2" data-name="Layer 1">
      <g>
        <path class="cls-1" d="M18.4,17.2H15.6v-.7c0-.1,0-.2-.1-.2H11.8a.2.2,0,0,0-.2.2v.7H9.5l-.2.2v.7l.2.2h8.9l.2-.2v-.7Z"/>
        <g>
          <path class="cls-1" d="M22.8,0H4.2A1.2,1.2,0,0,0,3,1.2V4.3c0,.4-.1.4.2.4h.5c.2,0,.2,0,.2-.5v-3A.3.3,0,0,1,4.2.9H22.8a.3.3,0,0,1,.3.3V12.7H9.8a.5.5,0,0,0-.5.6v1.4a.5.5,0,0,0,.5.6h13A1.1,1.1,0,0,0,24,14.2V1.2A1.2,1.2,0,0,0,22.8,0ZM13.5,14.3a.5.5,0,1,1,.5-.5A.5.5,0,0,1,13.5,14.3Z"/>
          <path class="cls-1" d="M7.5,5.8H.8a.7.7,0,0,0-.8.7V17.6a.7.7,0,0,0,.8.8H7.5a.8.8,0,0,0,.8-.8V6.5A.8.8,0,0,0,7.5,5.8Zm-4.2.7H5c.1,0,.1.1.1.2H3.2C3.2,6.6,3.2,6.5,3.3,6.5Zm.8,11.4a.4.4,0,0,1-.4-.4.4.4,0,0,1,.4-.4.4.4,0,0,1,.4.4A.4.4,0,0,1,4.1,17.9Zm3.5-1.2a.2.2,0,0,1-.2.2H.8c-.1,0-.1-.1-.1-.2V7.5c0-.1,0-.2.1-.2H7.4a.2.2,0,0,1,.2.2Z"/>
        </g>
      </g>
    </g>
  </g>
</svg>
