<svg xmlns="http://www.w3.org/2000/svg" width="24" height="26.7" viewBox="0 0 24 26.7">
  <defs>
    <style>
      .cls-1 {
        fill: #2f2f82;
      }
    </style>
  </defs>
  <title>user</title>
  <g id="Layer_2" data-name="Layer 2">
    <g id="Layer_1-2" data-name="Layer 1">
      <g id="Outline">
        <path class="cls-1" d="M5.8,0A3.1,3.1,0,0,0,2.7,3.1a3.1,3.1,0,0,0,6.2,0A3.1,3.1,0,0,0,5.8,0Zm0,5.3A2.2,2.2,0,0,1,3.5,3.1,2.2,2.2,0,0,1,5.8.9,2.2,2.2,0,0,1,8,3.1,2.2,2.2,0,0,1,5.8,5.3Z"/>
        <path class="cls-1" d="M8,3.1A2.2,2.2,0,0,1,5.8,5.3,2.2,2.2,0,0,1,3.5,3.1,2.2,2.2,0,0,1,5.8.9,2.2,2.2,0,0,1,8,3.1Z"/>
        <path class="cls-1" d="M11.6,8.9v2.7a1.3,1.3,0,0,1-1.4,1.3H1.3A1.3,1.3,0,0,1,0,11.6V8.9A4,4,0,0,1,2,5.4l.4-.2.2.3a3,3,0,0,0,.8.8A4,4,0,0,0,9,5.5l.2-.3.3.2A4.1,4.1,0,0,1,11.6,8.9Z"/>
        <path class="cls-1" d="M20.9,13.8H14.2a3.1,3.1,0,0,0-3.1,3.1v6.7a3.1,3.1,0,0,0,3.1,3.1h6.7A3.1,3.1,0,0,0,24,23.6V16.9A3.1,3.1,0,0,0,20.9,13.8Zm2.2,3.5H12v-.4a2.2,2.2,0,0,1,2.2-2.2h6.7a2.2,2.2,0,0,1,2.2,2.2Z"/>
        <path class="cls-1" d="M14.1,15.7c-.2-.2-.5-.2-.6,0a.4.4,0,0,0,0,.6c.1.2.4.2.6,0h.1v-.4Z"/>
        <path class="cls-1" d="M15.5,15.6h-.3a.6.6,0,0,0,0,.6h.4A.5.5,0,0,0,16,16a.4.4,0,0,0-.1-.3C15.8,15.6,15.6,15.5,15.5,15.6Z"/>
        <path class="cls-1" d="M17.2,15.6H17a.4.4,0,0,0,0,.6h.3a.5.5,0,0,0,.5-.5c0-.1-.1-.2-.1-.3S17.3,15.5,17.2,15.6Z"/>
        <path class="cls-1" d="M17.9,11.1l1.7,1.3,1.3-1.6V9.6l-1.1,1.2A8.3,8.3,0,0,0,11.6,4v.9a7.5,7.5,0,0,1,7.3,5.8l-1.1-.9Z"/>
        <path class="cls-1" d="M3.4,15.6,1.8,14.2.4,15.8v1.3l1-1.2a8.5,8.5,0,0,0,8.3,6.8v-.9A7.6,7.6,0,0,1,2.4,16l1.1.9Z"/>
      </g>
    </g>
  </g>
</svg>
