<svg xmlns="http://www.w3.org/2000/svg" width="24" height="15.5" viewBox="0 0 24 15.5">
  <defs>
    <style>
      .cls-1 {
        fill: #2f2f82;
      }
    </style>
  </defs>
  <title>visual</title>
  <g id="Layer_2" data-name="Layer 2">
    <g id="Layer_1-2" data-name="Layer 1">
      <g>
        <path class="cls-1" d="M23.9,7.3C21.4,3.9,16.7,0,12,0S2.6,3.9.1,7.3a1.4,1.4,0,0,0,0,.9c2.3,3.1,7,7.3,11.9,7.3s9.4-3.9,11.9-7.3A.7.7,0,0,0,23.9,7.3ZM12,14.1c-4,0-7.9-3.3-10.4-6.4C2.8,6.3,7,1.4,12,1.4s7.9,3.2,10.4,6.3C21.2,9.2,17,14.1,12,14.1Z"/>
        <path class="cls-1" d="M12,2.8a5,5,0,1,0,4.9,4.9A4.9,4.9,0,0,0,12,2.8Zm0,7A2.1,2.1,0,0,1,9.9,7.7a2.1,2.1,0,1,1,4.2,0A2.1,2.1,0,0,1,12,9.8Z"/>
      </g>
    </g>
  </g>
</svg>
