<?xml version="1.0" encoding="utf-8"?>
<!-- Generator: Adobe Illustrator 18.0.0, SVG Export Plug-In . SVG Version: 6.00 Build 0)  -->
<!DOCTYPE svg PUBLIC "-//W3C//DTD SVG 1.1//EN" "http://www.w3.org/Graphics/SVG/1.1/DTD/svg11.dtd">
<svg version="1.1" id="Layer_1" xmlns="http://www.w3.org/2000/svg" xmlns:xlink="http://www.w3.org/1999/xlink" x="0px" y="0px"
	 viewBox="0 0 150 150" enable-background="new 0 0 150 150" xml:space="preserve">
<title>Artboard 47</title>
<g id="Layer_37">
	<linearGradient id="SVGID_1_" gradientUnits="userSpaceOnUse" x1="68.51" y1="94.0561" x2="120.6499" y2="94.0561">
		<stop  offset="0" style="stop-color:#EB4524"/>
		<stop  offset="1" style="stop-color:#EB1175"/>
	</linearGradient>
	<path fill="url(#SVGID_1_)" d="M119,105.8c-6,21.8-19.3,40.7-19.3,40.7c-10.5,0.5-20.9-0.3-31.2-2.4V41.5
		c16.2,4.9,25.7,5.2,35.4,16.2C113.8,69.1,124.9,84,119,105.8z"/>
	<path fill="#FFFFFF" stroke="#000000" stroke-miterlimit="10" d="M32.4,84.9c-4.9,16,7.8,16.2,7.8,16.2s17.8,26.2,19.4,29.1
		c1.6,2.8,17.1,23.2,41.5,18c24.5-5.2,19.2-51.1,19.2-51.1c-2.7-1.7-5.7-2.7-8.8-2.9c-5.1-0.2-10.2,0.6-15,2.4
		c-2.1,0.7-4.1,1.6-6.1,2.6l-0.6,19.1c0,0-22.6-24.1-27.1-30.8c-4.5-6.8-2.8-22-7.6-21.3s-2.8,9.1-2.8,9.1S35.5,55.6,30.4,57.9
		c-5.1,2.3,7.1,15.8,7.1,15.8s-3.2,2.4-4.7,10.1"/>
	<path fill="#FFFFFF" stroke="#000000" stroke-miterlimit="10" d="M65.2,40.8c0.6,5.4,2.7,6.2,4.1,6.4c1.4,0.2,5.8,0.4,5.8,0.4
		l0.3,6.4c0.1,1.9,1.5,3.4,3.3,3.7c3.8,0.6,7.6,0.2,11.2-1.1c2-0.7,3.4-2.7,3.3-4.9l-0.3-17.8c0,0,3.6-0.5,3.4-5.9
		c-0.8-5.4-3.3-5-3.9-4.7h-0.1c0,0,2.1-9.9-5.2-12.3c-21.3-7.2-23,0.4-23,0.4s-0.1,0.3-0.2,0.5C62.3,17.8,64.7,35.5,65.2,40.8z"/>
	<path d="M64.3,11.4c-0.1,0.2-0.5,4-0.6,4.1c3.8-1.1,16.9-0.2,16.9-0.2c-1.9,4.8,1.7,7.4,5.6,11.9c0.8,1,2.3,1.1,3.3,0.3
		c0.4-0.3,0.6-0.7,0.8-1.1c0.3-1.3,1-2.4,2.1-3.2c0,0,2.1-9.9-5.2-12.3C66,3.7,64.3,11.4,64.3,11.4z"/>
	<path d="M75.5,37.5c-0.7,0.8-1.7,1.5-2.7,1.8c-0.5,0.2-0.3,1,0.2,0.9c1.2-0.4,2.3-1.1,3.1-2C76.5,37.7,75.9,37.1,75.5,37.5z"/>
	<path d="M80.9,23.7c-1.2-0.7-2.6-0.9-4-0.6c-0.7,0.2-1,0.9-0.8,1.5c0.2,0.7,0.9,1,1.5,0.8c0.7-0.1,1.5,0,2.1,0.4
		C81.1,26.6,82.3,24.4,80.9,23.7L80.9,23.7z"/>
	<path d="M69.7,22.1c-1.1-0.3-2.2-0.4-3.3-0.4c-0.7,0-1.2,0.6-1.2,1.2c0,0.7,0.6,1.2,1.2,1.2c0.9,0,1.8,0.1,2.7,0.4
		c0.7,0.2,1.3-0.2,1.5-0.8C70.8,23,70.4,22.3,69.7,22.1L69.7,22.1L69.7,22.1z"/>
	<path d="M70.5,25c-0.9,2.9-2.4,6.5-2.4,9.5c-0.1,1,0.5,1.9,1.5,2c0.2,0,0.4,0,0.6,0c0.6-0.1,0.6-1,0-0.9c-2.1,0.3-0.4-5-0.2-5.7
		c0.4-1.6,0.9-3.2,1.4-4.7C71.5,24.8,70.7,24.5,70.5,25L70.5,25z"/>
	<circle cx="77.3" cy="29.2" r="0.8"/>
	<circle cx="66.5" cy="27.8" r="0.8"/>
</g>
</svg>
