<?xml version="1.0" encoding="utf-8"?>
<!-- Generator: Adobe Illustrator 18.0.0, SVG Export Plug-In . SVG Version: 6.00 Build 0)  -->
<!DOCTYPE svg PUBLIC "-//W3C//DTD SVG 1.1//EN" "http://www.w3.org/Graphics/SVG/1.1/DTD/svg11.dtd">
<svg version="1.1" id="Layer_1" xmlns="http://www.w3.org/2000/svg" xmlns:xlink="http://www.w3.org/1999/xlink" x="0px" y="0px"
	 viewBox="0 0 1527.2 249" enable-background="new 0 0 1527.2 249" xml:space="preserve">
<g>
	<linearGradient id="SVGID_1_" gradientUnits="userSpaceOnUse" x1="28.07" y1="119.7131" x2="276.3147" y2="119.7131">
		<stop  offset="0" style="stop-color:#EB4524"/>
		<stop  offset="1" style="stop-color:#EB1375"/>
	</linearGradient>
	<path fill="url(#SVGID_1_)" d="M276.3,42v46.8H28.1c0-11.2,0.5-19.1,1.5-23.7c1.7-7.6,5.2-13.2,10.6-16.8c6.3-4.2,16-6.3,29-6.3
		H276.3z M185.1,197.4h46.3V96.3H185L185.1,197.4z M117.7,150.6H74.4V96.3H28.1v59.6c0,9.2,0.5,15.9,1.5,20
		c1.7,6.8,5.3,12,10.7,15.4c6.5,4.1,16.1,6.2,28.9,6.2H123c12.9,0,22.5-2.1,29-6.2c5.4-3.4,9-8.5,10.6-15.4c1-4.1,1.5-10.7,1.5-20
		v-23.4h-46.4V150.6z"/>
	<g>
		<path fill="#0E1523" d="M444.1,202.3H404V82.1H303.7V42H404c12.5,0,21.9,2,28.2,5.9c5.3,3.3,8.7,8.2,10.4,14.9
			c1,4,1.5,10.4,1.5,19.3V202.3z M343.8,202.3h-40.1V102.1h40.1V202.3z"/>
		<path fill="#0E1523" d="M614.1,82.1H473.7V42h140.3V82.1z M614.1,202.3H473.7V102.1H574v40.1h-60.1v20h100.2V202.3z"/>
		<path fill="#0E1523" d="M784.1,82.1H734v120.2h-40.1l-0.2-120.2h-50V42h140.3V82.1z"/>
		<path fill="#0E1523" d="M974.1,162.2c0,9.1-0.5,15.5-1.4,19.3c-1.6,6.6-5.1,11.5-10.4,14.9c-6.3,4-15.7,5.9-28.3,5.9h-80.2
			c-12.5,0-21.9-2-28.2-5.9c-5.3-3.3-8.7-8.2-10.4-14.9c-1-4-1.5-10.4-1.5-19.3v-60.1h40.1v60.1h20V62H914v100.2h20V42h40.1V162.2z
			 M853.8,82.1h-40.1V42h40.1V82.1z"/>
		<path fill="#0E1523" d="M1141.2,162.2c0,9.1-0.5,15.5-1.4,19.3c-1.6,6.6-5.1,11.5-10.4,14.9c-6.3,4-15.7,5.9-28.3,5.9h-60.1
			c-12.5,0-21.9-2-28.2-5.9c-5.3-3.3-8.7-8.2-10.4-14.9c-1-4-1.5-10.4-1.5-19.3v-60.1h40.1v60.1h60.1V82.1h-100.2
			c0-9.1,0.5-15.5,1.4-19.3c1.6-6.6,5.1-11.5,10.4-14.9c6.3-4,15.7-6,28.3-6h60.1c12.5,0,21.9,2,28.2,5.9c5.3,3.3,8.7,8.2,10.4,14.9
			c1,4,1.5,10.4,1.5,19.3V162.2z"/>
		<path fill="#0E1523" d="M1311.2,102.1c0,9-0.4,15.4-1.1,19.3c-1.3,6.6-3.9,11.6-7.8,14.9c-4.7,4-11.8,6-21.2,6
			c-2.2,0.3-3.9,0.7-5,1.3c-3.3,1.7-5,4.6-5,8.8c0,4.2,1.7,7.1,5,8.8c1.1,0.5,2.8,0.9,5,1.3h30.1v40.1h-40.1
			c-12.5,0-21.9-2-28.2-5.9c-5.3-3.3-8.7-8.2-10.4-14.9c-1-4-1.5-10.4-1.5-19.3v-10c-0.3-2.2-0.7-3.9-1.3-5c-1.7-3.3-4.6-5-8.8-5
			s-7.1,1.7-8.8,5c-0.5,1.1-0.9,2.8-1.3,5v50.1h-40.1V102.1h90.2c2.2-0.3,3.9-0.7,5-1.2c3.3-1.7,5-4.6,5-8.7c0-4.2-1.7-7.1-5-8.7
			c-1.1-0.5-2.8-0.9-5-1.2h-90.2V42h100.2c13.6,0,23.9,4.2,31,12.5c6.1,7.1,9.1,16.3,9.1,27.5V102.1z"/>
		<path fill="#0E1523" d="M1481.2,202.3h-50.1l-50.1-65.2v65.2h-40.1V102.1h40.1l50.1-60.1h50.1l-65.2,80.1L1481.2,202.3z
			 M1380.9,82.1h-40.1V42h40.1V82.1z"/>
	</g>
</g>
</svg>
