<?xml version="1.0" encoding="utf-8"?>
<!-- Generator: Adobe Illustrator 23.0.1, SVG Export Plug-In . SVG Version: 6.00 Build 0)  -->
<svg version="1.1" id="Layer_1" xmlns="http://www.w3.org/2000/svg" xmlns:xlink="http://www.w3.org/1999/xlink" x="0px" y="0px"
	 width="636.3px" height="422.4px" viewBox="0 0 636.3 422.4" style="enable-background:new 0 0 636.3 422.4;" xml:space="preserve"
	>
<style type="text/css">
	.st0{fill:url(#SVGID_1_);}
</style>
<title>Asset 12</title>
<linearGradient id="SVGID_1_" gradientUnits="userSpaceOnUse" x1="315.0848" y1="636.4859" x2="321.5303" y2="35.0454">
	<stop  offset="0.1363" style="stop-color:#FFFFFF"/>
	<stop  offset="1" style="stop-color:#F8F3FF"/>
</linearGradient>
<path class="st0" d="M636.3,106.1v316.3H0V282.2c15.2-8.8,32.8-13.8,51.3-13.8c5.2,0,10.5,0.4,15.9,1.2c67.9,10.4,122,30,153.7,14.3
	c28.8-14.2,31.9-67.6,42-94.3c6.3-16.7,15.2-33,29.8-44c17.2-12.9,39.1-15.4,59.5-20.2c29.3-6.9,58-22.3,74.4-47.5
	c10.7-16.4,19.5-32.6,29.8-47c0.8-0.8,1.7-1.6,2.5-2.4C525.9-34.6,636.3,13.9,636.3,106.1z"/>
</svg>
