<?xml version="1.0" encoding="utf-8"?>
<!-- Generator: Adobe Illustrator 23.0.1, SVG Export Plug-In . SVG Version: 6.00 Build 0)  -->
<svg version="1.1" id="Layer_1" xmlns="http://www.w3.org/2000/svg" xmlns:xlink="http://www.w3.org/1999/xlink" x="0px" y="0px"
	 viewBox="0 0 327.02161 65.19685" style="enable-background:new 0 0 327.02161 65.19685;" xml:space="preserve">
<style type="text/css">
	.st0{fill:#FFFFFF;}
	.st1{fill:#324E5D;}
	.st2{fill:#D3C6DF;}
	.st3{fill:#E0E1E0;}
</style>
<g>
	<g>
		<g>
			<path class="st0" d="M91.97691,47.71682c-0.825,0-1.37302-0.66294-1.21782-1.47322l6.82723-35.64341
				c0.1552-0.81027,0.95718-1.47322,1.78219-1.47322h4.82715c0.825,0,1.373,0.66294,1.21778,1.47321L98.5853,46.24361
				c-0.15522,0.81026-0.95722,1.47321-1.78222,1.47321H91.97691z"/>
		</g>
	</g>
	<g>
		<path class="st0" d="M149.1205,10.65273c0.94115,0,1.64981,0.85667,1.4734,1.78115l-0.2402,1.25889l-3.1001,16.16998
			l-1.23999,6.21997c-0.09985,0.54999-0.20996,1.16003-0.28979,1.75l-0.01025,0.09003l-1.98975,10.35999
			c-4.19019-0.22998-6.18018-2.53998-6.18018-5.66998c0-1.47003,0.16016-2.94,0.54004-4.95001l2.06006-10.59997h-1.5687
			c-0.93723,0-1.64493-0.84991-1.4752-1.77164l0.53769-2.92004c0.13104-0.7117,0.75153-1.22836,1.47519-1.22836h1.98097
			l1.77667-9.27227c0.13542-0.70672,0.75363-1.21772,1.47321-1.21772H149.1205z"/>
	</g>
	<g>
		<g>
			<path class="st0" d="M66.52362,21.14272c-0.825,0-1.62695,0.66296-1.7821,1.47323l-6.58571,34.39356
				c-0.15515,0.81028,0.39291,1.47323,1.21791,1.47323h4.83008c0.825,0,1.62714-0.66292,1.78252-1.47315l1.58485-8.26371
				c0.1554-0.81023,0.28478-1.4844,0.28754-1.49815c0.00275-0.01374,0.13149-0.68803,0.28609-1.49842l0.59772-3.13316
				c0.1546-0.81038,0.40849-2.1363,0.56419-2.94647l1.05392-5.48391c0.1557-0.81017,0.40974-2.13606,0.56452-2.94641
				l1.64711-8.62328c0.15479-0.81035-0.39358-1.47336-1.21857-1.47336H66.52362z"/>
		</g>
	</g>
	<g>
		<g>
			<path class="st0" d="M127.4538,21.14272c-0.825,0-1.62685,0.66298-1.78188,1.47328l-3.88645,20.31346
				c-0.15503,0.8103-0.40806,2.13638-0.56229,2.94683l-0.06905,0.36288c-0.15423,0.81046,0.39458,1.47356,1.21959,1.47356h4.81982
				c0.825,0,1.62773-0.6628,1.78386-1.47289l0.54237-2.81422c0.15613-0.81009,0.35588-1.89364,0.44391-2.40789
				c0.08801-0.51425,0.47644-2.60805,0.63101-3.41844l2.85785-14.98312c0.15457-0.81039-0.39397-1.47344-1.21896-1.47344H127.4538z"
				/>
		</g>
	</g>
	<g>
		<g>
			<path class="st0" d="M260.13373,19.29275c-0.82501,0-1.55624,0.29025-1.625,0.64499s-0.25183,1.30797-0.40686,2.11827
				l-4.62648,24.18344c-0.15501,0.81031,0.39316,1.47328,1.21815,1.47328h4.83008c0.82501,0,1.62689-0.66297,1.78195-1.47326
				l0.94611-4.94349c0.15506-0.8103,0.40884-2.13622,0.56396-2.94651l3.36591-17.58347
				c0.15509-0.81029-0.39297-1.47325-1.21799-1.47325H260.13373z"/>
		</g>
	</g>
	<g>
		<g>
			<path class="st0" d="M274.74359,19.29275c-0.82501,0-1.5787,0.41624-1.67493,0.92499s-0.30212,1.58789-0.45761,2.39811
				l-1.32477,6.90379c-0.15549,0.81022-0.30515,1.61037-0.33261,1.77812s-0.23541,1.26822-0.38873,2.07886l-2.4325,12.86225
				c-0.15332,0.81063,0.39624,1.47387,1.22125,1.47387h4.78003c0.82501,0,1.62674-0.66299,1.78168-1.47331l3.90662-20.43338
				c0.15491-0.81032,0.40924-2.13615,0.56516-2.94628l0.40302-2.09404c0.15591-0.81013-0.39151-1.47297-1.21652-1.47297H274.74359z"
				/>
		</g>
	</g>
	<g>
		<g>
			<path class="st0" d="M296.63373,9.72274c-0.82501,0-1.62518,0.66329-1.7782,1.47398l-6.61377,35.04204
				c-0.15302,0.81069,0.39679,1.47398,1.2218,1.47398h4.71021c0.82501,0,1.62717-0.66291,1.78262-1.47313l3.53461-18.42373
				c0.15546-0.81022,0.40948-2.13611,0.56451-2.94641l2.61636-13.67345c0.15506-0.8103-0.39307-1.47327-1.21808-1.47327H296.63373z"
				/>
		</g>
	</g>
	<g>
		<g>
			<path class="st0" d="M13.14801,58.48275c-0.825,0-1.373-0.66294-1.21778-1.47321l6.82814-35.64342
				c0.15522-0.81027,0.95722-1.47321,1.78222-1.47321h4.82617c0.825,0,1.373,0.66294,1.21778,1.47321L19.7564,57.00954
				c-0.15522,0.81026-0.95722,1.47321-1.78222,1.47321H13.14801z"/>
		</g>
	</g>
	<path class="st1" d="M69.15546,41.0379"/>
	<g>
		<path class="st2" d="M27.0852,47.07486c-0.68278,0.46307-1.11431,0.17902-0.95895-0.63121l4.48891-23.41128
			c0.15536-0.81024,0.66134-0.91453,1.12442-0.23174l8.96798,13.22289c0.46307,0.68278,0.28331,1.6203-0.39947,2.08337
			L27.0852,47.07486z"/>
	</g>
	<g>
		<path class="st3" d="M49.10049,7.55605c0.68278-0.46307,1.11431-0.17903,0.95895,0.63121l-4.48891,23.41127
			c-0.15536,0.81024-0.66135,0.91453-1.12442,0.23175L35.47814,18.6074c-0.46307-0.68278-0.28331-1.6203,0.39947-2.08337
			L49.10049,7.55605z"/>
	</g>
	<path class="st1" d="M72.21487,41.0379"/>
	<g>
		<g>
			<g>
				<path class="st3" d="M88.19354,30.59273c0,9.23999-6.13989,17.72003-15.37988,17.72003c-1.71997,0-3.23999-0.34003-4.25-0.76001
					l1.14014-5.90002c0.77002,0.47003,1.71997,0.73999,2.83984,0.73999c4.18994,0,7.44995-5.97998,7.44995-11.19995
					c0-2.12006-0.86987-4.35004-3.42993-4.35004c-1.72998,0-3.37988,1.15002-4.62988,3.16003l1.37988-7.22003
					c1.87012-1.46997,4.1001-2.23999,6.3501-2.23999C85.42377,20.54275,88.19354,25.16274,88.19354,30.59273z"/>
			</g>
			<g>
				<path class="st3" d="M121.90375,38.25277l-1.36011,7.09998c-2.29004,2.06-4.83984,2.96002-7.3501,2.96002
					c-4.23975,0-6.78979-2.39001-6.78979-7.44c0-1.47003,0.15991-3.05005,0.53979-4.90002l2.54128-13.60543
					c0.13261-0.70994,0.75229-1.22459,1.4745-1.22459h4.77818c0.93879,0,1.64687,0.8526,1.47449,1.77542l-2.32828,12.46457
					c-0.21997,1.19-0.39014,2.5-0.39014,3.47003c0,1.73999,0.66016,3.09998,2.67017,3.09998
					C118.87372,41.95272,120.61371,40.62276,121.90375,38.25277z"/>
			</g>
			<g>
				<path class="st3" d="M149.98358,41.57271l-0.91992,6.14001c-0.96997,0.38-2.8999,0.60004-4.57007,0.60004l1.42017-7.45001
					c0.32983,0.51001,0.91992,0.82001,1.8999,0.82001C148.51361,41.68276,149.27362,41.68276,149.98358,41.57271z"/>
			</g>
			<g>
				<polygon class="st3" points="154.6037,21.14272 153.46356,27.06277 148.56366,27.06277 149.69354,21.14272 				"/>
			</g>
			<g>
				<path class="st3" d="M181.99643,31.46584c0,9.72851-6.63086,16.84863-15.87109,16.84863c-6.73926,0-11.25-4.40234-11.25-10.979
					c0-9.23974,6.41309-16.79443,15.87109-16.79443C177.86557,20.54104,181.99643,25.43264,181.99643,31.46584z M162.97299,37.17238
					c0,3.09814,1.52246,5.16357,4.24023,5.16357c4.29297,0,6.68555-6.25049,6.68555-10.81592
					c0-2.4458-1.0332-5.05469-4.18555-5.05469C165.20151,26.46535,162.91928,33.04201,162.97299,37.17238z"/>
			</g>
			<g>
				<path class="st3" d="M184.77376,42.24434c0.27736-0.80038,1.16396-1.22144,1.95161-0.90976
					c1.56636,0.6198,3.64235,1.21867,5.53864,1.21867c2.22852,0,3.37012-1.08691,3.37012-2.39111
					c0-1.30469-0.87012-2.22852-3.31543-3.42432c-3.09766-1.52197-5.65234-3.75049-5.65234-7.06592
					c0-5.48926,4.83691-9.13086,11.68555-9.13086c2.2314,0,4.1248,0.31013,5.4966,0.76812
					c0.77573,0.25899,1.17667,1.11399,0.91808,1.88985l-0.90999,2.73018c-0.25888,0.77674-1.09671,1.22248-1.87317,0.96276
					c-1.05881-0.35417-2.39973-0.64388-3.95769-0.64388c-2.06543,0-3.47852,0.92383-3.47852,2.33691
					c0,1.08691,1.08691,2.01123,3.26172,3.04395c2.87988,1.46728,5.92383,3.58691,5.92383,7.28271
					c0,6.0874-5.16406,9.34912-12.1748,9.34912c-2.67525,0-5.24774-0.5483-6.98325-1.37232
					c-0.69182-0.32847-1.0201-1.1259-0.76935-1.84951L184.77376,42.24434z"/>
			</g>
			<g>
				<path class="st3" d="M257.61371,20.55276l-1.15015,6.01996c-0.44995-0.06-0.93994-0.10999-1.42993-0.10999
					c-5.05981,0-8.75,6.20001-8.75,11.14001c0,2.60999,1.03003,4.40997,3.19995,4.40997c1.58008,0,3.40015-1.21997,4.79004-4.00995
					l-1.42993,7.45996c-2.05005,2.08002-4.42993,2.85004-6.66992,2.85004c-4.78003,0-8.04004-3.69-8.04004-9.24005
					c0-8.96997,5.91992-18.52997,19.02002-18.52997C257.30365,20.54275,257.46356,20.54275,257.61371,20.55276z"/>
			</g>
			<g>
				<path class="st3" d="M287.64374,20.54275c0.53348,0.02749,0.83777,0.71191,0.67615,1.52093l-0.9324,4.6681
					c-0.16159,0.80902-0.65833,1.44845-1.10385,1.42096c0,0,0,0-0.43994,0c-2.88989,0-5.25885,2.64302-5.25885,2.64302
					c-0.55063,0.61435-0.87411,0.45406-0.71881-0.3562l1.13525-5.92362c0.1553-0.81025,0.83826-1.85604,1.51773-2.32397
					c0,0,2.39474-1.64922,4.63474-1.64922C287.64374,20.54275,287.64374,20.54275,287.64374,20.54275z"/>
			</g>
			<g>
				<path class="st3" d="M306.27362,32.06276l6.38766,13.50875c0.47052,0.99509-0.25531,2.14121-1.35605,2.14121h-5.32626
					c-0.60815,0-1.15613-0.36719-1.38736-0.92965l-4.28796-10.43033l-2.05005,1.94l1.37012-7.14001
					c0.53003-0.66998,1.04004-1.33002,1.54004-1.96997l6.3504-7.50868c0.285-0.33699,0.70398-0.53136,1.14532-0.53136h5.21109
					c1.34909,0,2.01242,1.64204,1.0419,2.5791L306.27362,32.06276z"/>
			</g>
			<g>
				<path class="st3" d="M235.22325,30.59273c0,9.23999-6.13989,17.72003-15.37988,17.72003
					c-1.71997,0-3.23999-0.34003-4.25-0.76001l1.14014-5.90002c0.77002,0.47003,1.71997,0.73999,2.83984,0.73999
					c4.18994,0,7.44995-5.97998,7.44995-11.19995c0-2.12006-0.86987-4.35004-3.42993-4.35004
					c-1.72998,0-3.37988,1.15002-4.62988,3.16003l1.37988-7.22003c1.87012-1.46997,4.1001-2.23999,6.3501-2.23999
					C232.45348,20.54275,235.22325,25.16274,235.22325,30.59273z"/>
			</g>
		</g>
	</g>
	<g>
		<g>
			<path class="st0" d="M213.55333,21.14272c-0.82501,0-1.62695,0.66296-1.7821,1.47323l-6.58571,34.39356
				c-0.15515,0.81028,0.3929,1.47323,1.21791,1.47323h4.83008c0.825,0,1.62714-0.66292,1.78252-1.47315l1.58485-8.26371
				c0.15538-0.81023,0.28477-1.4844,0.28754-1.49815c0.00275-0.01374,0.13148-0.68803,0.28609-1.49842l0.59773-3.13316
				c0.1546-0.81038,0.40848-2.1363,0.56419-2.94647l1.05391-5.48391c0.15572-0.81017,0.40974-2.13606,0.56453-2.94641
				l1.64711-8.62328c0.15479-0.81035-0.39357-1.47336-1.21857-1.47336H213.55333z"/>
		</g>
	</g>
	<path class="st1" d="M216.18517,41.0379"/>
	<path class="st1" d="M219.24457,41.0379"/>
</g>
</svg>
