<?xml version="1.0" encoding="utf-8"?>
<!-- Generator: Adobe Illustrator 23.0.1, SVG Export Plug-In . SVG Version: 6.00 Build 0)  -->
<svg version="1.1" id="Layer_1" xmlns="http://www.w3.org/2000/svg" xmlns:xlink="http://www.w3.org/1999/xlink" x="0px" y="0px"
	 width="297.6px" height="51.7px" viewBox="0 0 297.6 51.7" style="enable-background:new 0 0 297.6 51.7;" xml:space="preserve">
<style type="text/css">
	.st0{fill:#D3C6DF;}
	.st1{fill:#FFFFFF;}
	.st2{fill:#E0E1E0;}
</style>
<path class="st0" d="M16.2,38c-0.2,0.8,0.3,1.1,0.9,0.6L29.9,30c0.7-0.4,0.8-1.3,0.4-2l-8.6-12.8c-0.4-0.7-0.9-0.6-1.1,0.2L16.2,38z
	"/>
<path class="st1" d="M3.7,49.6c-0.8,0-1.3-0.6-1.2-1.4l6.6-34.3c0.1-0.8,0.9-1.4,1.7-1.4h4.6c0.8,0,1.3,0.6,1.2,1.4L10,48.2
	c-0.1,0.8-0.9,1.4-1.7,1.4H3.7z"/>
<path class="st1" d="M134.6,2.6c0.9,0,1.6,0.8,1.4,1.7l-6.8,35.4c0,0,0,0,0,0c0,0,0,0-0.1,0c-0.8,0-7.4-0.3-5.8-8.6c0,0,0-0.1,0-0.1
	c0,0,0,0,0,0l0.1-0.4c0,0,0,0,0,0l2.2-11.2c0,0,0,0,0,0h-1.4c-0.9,0-1.6-0.8-1.4-1.7l0.5-2.8c0.1-0.7,0.7-1.2,1.4-1.2h2c0,0,0,0,0,0
	l1.9-9.9c0.1-0.7,0.7-1.2,1.4-1.2C130,2.6,134.6,2.6,134.6,2.6z"/>
<path class="st1" d="M55.3,12.5c-0.8,0-1.6,0.6-1.7,1.4L47,48.2c-0.1,0.8,0.4,1.4,1.2,1.4h4.6c0.8,0,1.6-0.6,1.7-1.4l6.6-34.3
	c0.1-0.8-0.4-1.4-1.2-1.4C59.9,12.5,55.3,12.5,55.3,12.5z"/>
<path class="st1" d="M79.4,39.6c-0.8,0-1.3-0.6-1.2-1.4L84.8,4c0.1-0.8,0.9-1.4,1.7-1.4h4.6c0.8,0,1.3,0.6,1.2,1.4l-6.6,34.2
	c-0.1,0.8-0.9,1.4-1.7,1.4H79.4z"/>
<path class="st1" d="M118.5,12.5c0.8,0,1.3,0.6,1.2,1.4L115,38.2c-0.1,0.8-0.9,1.4-1.7,1.4h-4.6c-0.8,0-1.3-0.6-1.2-1.4l4.7-24.3
	c0.1-0.8,0.9-1.4,1.7-1.4C113.9,12.5,118.5,12.5,118.5,12.5z"/>
<path class="st1" d="M245.9,12.5c0.8,0,1.3,0.6,1.2,1.4l-4.7,24.3c-0.1,0.8-0.9,1.4-1.7,1.4h-4.6c-0.8,0-1.3-0.6-1.2-1.4l4.7-24.3
	c0.1-0.8,0.9-1.4,1.7-1.4C241.3,12.5,245.9,12.5,245.9,12.5z"/>
<path class="st1" d="M259.9,12.5c0.8,0,1.3,0.6,1.2,1.4l-4.7,24.3c-0.1,0.8-0.9,1.4-1.7,1.4H250c-0.8,0-1.3-0.6-1.2-1.4l4.7-24.3
	c0.1-0.8,0.9-1.4,1.7-1.4L259.9,12.5L259.9,12.5z"/>
<path class="st1" d="M269.4,39.6c-0.8,0-1.3-0.6-1.2-1.4L274.8,4c0.1-0.8,0.9-1.4,1.7-1.4h4.6c0.8,0,1.3,0.6,1.2,1.4l-6.6,34.2
	c-0.1,0.8-0.9,1.4-1.7,1.4H269.4z"/>
<path class="st1" d="M189.8,49.6c-0.8,0-1.3-0.6-1.2-1.4l6.6-34.3c0.1-0.8,0.9-1.4,1.7-1.4h4.6c0.8,0,1.3,0.6,1.2,1.4l-6.6,34.3
	c-0.1,0.8-0.9,1.4-1.7,1.4H189.8z"/>
<path class="st2" d="M33.6,25.8c0.4,0.7,0.9,0.6,1.1-0.2L39.1,3c0.2-0.8-0.3-1.1-0.9-0.6L25.4,11c-0.7,0.4-0.8,1.3-0.4,2L33.6,25.8z
	"/>
<path class="st2" d="M75.9,22.8c0,8.8-5.8,16.9-14.6,16.9c-1.4,0-2.7-0.2-3.6-0.6l1.1-5.6c0.7,0.3,1.4,0.5,2.3,0.5
	c4,0,7.1-5.7,7.1-10.7c0-2-0.8-4.1-3.3-4.1c-1.4,0-2.7,0.8-3.8,2.2l1.2-6.4c1.7-1.2,3.6-1.8,5.5-1.8C73.2,13.2,75.9,17.6,75.9,22.8z
	"/>
<path class="st2" d="M217.5,22.7c0,8.8-5.9,16.9-14.7,16.9c-1.4,0-2.7-0.2-3.6-0.6l1.1-5.5v0c0.7,0.3,1.4,0.5,2.3,0.5
	c4,0,7.1-5.7,7.1-10.7c0-2-0.8-4.2-3.3-4.2c-1.4,0-2.7,0.8-3.8,2.2l0.4-2l0.8-4.3l0-0.1c1.7-1.2,3.6-1.8,5.6-1.8
	C214.9,13.2,217.5,17.6,217.5,22.7z"/>
<path class="st2" d="M107.6,30.7l-1.2,6.4c-2.1,1.7-4.5,2.5-6.7,2.5c-4.2,0-6.8-2.4-6.8-7.4c0-1.5,0.2-3,0.5-4.9l2.5-13.6
	c0.1-0.7,0.8-1.2,1.5-1.2h4.8c0.9,0,1.6,0.8,1.5,1.8l-2.3,12.5c-0.2,1.2-0.4,2.5-0.4,3.5c0,1.7,0.7,3.1,2.7,3.1
	C105,33.3,106.4,32.4,107.6,30.7z"/>
<path class="st2" d="M135.3,33.2l-0.9,5.9c-0.8,0.3-2.4,0.5-3.8,0.6l0.1-0.5l1.1-5.6l0.1-0.6c0.3,0.2,0.8,0.3,1.3,0.3
	C133.9,33.3,134.6,33.3,135.3,33.2z"/>
<polygon class="st2" points="139.7,13.6 138.6,19.3 134.5,19.3 135.3,15 135.6,13.6 "/>
<path class="st2" d="M166.5,23.1c0,9.5-6.5,16.5-15.5,16.5c-6.6,0-11-4.3-11-10.7c0-9,6.3-16.4,15.5-16.4
	C162.5,12.5,166.5,17.2,166.5,23.1z M147.9,28.7c0,3,1.5,5,4.1,5c4.2,0,6.5-6.1,6.5-10.6c0-2.4-1-4.9-4.1-4.9
	C150.1,18.3,147.9,24.7,147.9,28.7z"/>
<path class="st2" d="M168.9,33.7c0.3-0.8,1.1-1.2,1.9-0.9c1.5,0.6,3.6,1.2,5.4,1.2c2.2,0,3.3-1.1,3.3-2.3c0-1.3-0.9-2.2-3.2-3.4
	c-3-1.5-5.5-3.7-5.5-6.9c0-5.4,4.7-8.9,11.4-8.9c2.2,0,4,0.3,5.4,0.8c0.8,0.3,1.2,1.1,0.9,1.8l-0.9,2.7c-0.3,0.8-1.1,1.2-1.8,0.9
	c-1-0.3-2.3-0.6-3.9-0.6c-2,0-3.4,0.9-3.4,2.3c0,1.1,1.1,2,3.2,3c2.8,1.4,5.8,3.5,5.8,7.1c0,6-5.1,9.1-11.9,9.1
	c-2.6,0-5.1-0.5-6.8-1.3c-0.7-0.3-1-1.1-0.8-1.8L168.9,33.7z"/>
<path class="st2" d="M238.4,13.2l-1.1,5.7c-0.3,0-0.7-0.1-1-0.1c-4.8,0-8.3,5.9-8.3,10.6c0,2.5,1,4.2,3,4.2c1.3,0,2.8-0.9,4-2.9v0
	l-1.3,6.6c-1.9,1.7-4,2.3-5.9,2.3c-4.6,0-7.7-3.5-7.7-8.8C220.1,22.3,225.8,13.2,238.4,13.2C238.3,13.2,238.4,13.2,238.4,13.2z"/>
<path class="st2" d="M268.2,13.2c0.3,0,0.4,0.2,0.4,0.5l-1.3,6.4c0,0.2-0.3,0.4-0.5,0.4c0,0-0.3,0-0.7,0c-2.4,0-5.1,2.5-5.1,2.5
	c-0.2,0.2-0.3,0.1-0.3-0.1l0.2-1c0-0.2,0.1-0.7,0.2-0.9l0.2-1.1c0-0.2,0.1-0.7,0.2-0.9l0.6-3.3c0-0.2,0.3-0.6,0.5-0.7
	c0,0,2.8-1.7,4.7-1.7C267.7,13.1,268.2,13.2,268.2,13.2z"/>
<path class="st2" d="M295,15.1l-8.8,8.5l6.5,13.8c0.5,1-0.3,2.2-1.4,2.2h-5.5c-0.6,0-1.2-0.4-1.4-0.9L280.1,28l-1.3,1.2l1.1-5.9
	l0.3-1.7c0.2-0.3,0.5-0.6,0.7-0.9l6.5-7.7c0.3-0.3,0.7-0.5,1.2-0.5h5.3C295.3,12.5,296,14.1,295,15.1z"/>
</svg>
