<?xml version="1.0" encoding="utf-8"?>
<!-- Generator: Adobe Illustrator 23.0.1, SVG Export Plug-In . SVG Version: 6.00 Build 0)  -->
<svg version="1.1" id="Layer_1" xmlns="http://www.w3.org/2000/svg" xmlns:xlink="http://www.w3.org/1999/xlink" x="0px" y="0px"
	 viewBox="0 0 324.59406 60.11881" style="enable-background:new 0 0 324.59406 60.11881;" xml:space="preserve">
<style type="text/css">
	.st0{fill:#8E3DCC;}
	.st1{fill:#303082;}
	.st2{fill:#574FA0;}
</style>
<g>
	<path class="st0" d="M26.23248,41.44395c-0.15204,0.77821,0.26175,1.05266,0.91954,0.6099l12.80366-8.61831
		c0.65779-0.44276,0.83372-1.34322,0.39095-2.00101l-8.6183-12.80366c-0.44277-0.65779-0.92943-0.55926-1.08147,0.21895
		L26.23248,41.44395z"/>
</g>
<g>
	<g>
		<g>
			<path class="st1" d="M13.72944,53.00077c-0.79292,0-1.31962-0.63717-1.17043-1.41593l6.5698-34.29489
				c0.14919-0.77876,0.92-1.41593,1.71292-1.41593h4.6461c0.79292,0,1.31962,0.63717,1.17043,1.41593l-6.5698,34.29489
				c-0.14919,0.77876-0.92,1.41593-1.71292,1.41593H13.72944z"/>
		</g>
	</g>
	<g>
		<path class="st1" d="M144.65984,5.9757c0.90604,0,1.58795,0.82515,1.4173,1.71496l-6.78021,35.35123
			c-0.00032,0.00166-0.00197,0.00301-0.00365,0.00301c0,0-0.02606,0-0.07397,0c-0.81787,0-7.40825-0.25015-5.81105-8.56259
			c0.00964-0.04809,0.01894-0.13166,0.01894-0.13166c0.00018-0.00168,0.0006-0.0044,0.00093-0.00606l0.07593-0.41729
			c0.00027-0.00166,0.00078-0.00438,0.0011-0.00603l2.15367-11.23113c0.00032-0.00166-0.00081-0.00301-0.00249-0.00301h-1.44753
			c-0.90509,0-1.58679-0.82352-1.41774-1.71268l0.52866-2.78044c0.12946-0.68088,0.72466-1.17358,1.41772-1.17358h2.00616
			c0.00168,0,0.00333-0.00135,0.00365-0.00301l1.9003-9.87139c0.13077-0.67936,0.72527-1.17033,1.4171-1.17033H144.65984z"/>
	</g>
	<g>
		<path class="st1" d="M65.31995,15.87554c-0.79292,0-1.5637,0.63718-1.71283,1.41595l-6.56763,34.29503
			c-0.14914,0.77877,0.3776,1.41595,1.17052,1.41595h4.64985c0.79293,0,1.5637-0.63718,1.71284-1.41595l6.56763-34.29503
			c0.14914-0.77877-0.37759-1.41595-1.17052-1.41595H65.31995z"/>
	</g>
	<g>
		<path class="st1" d="M89.49153,43.04878c-0.79292,0-1.31945-0.63714-1.17007-1.41586l6.56908-34.24368
			c0.14938-0.77872,0.92036-1.41586,1.71329-1.41586h4.6461c0.79292,0,1.31946,0.63714,1.17007,1.41586l-6.56908,34.24368
			c-0.14938,0.77872-0.92036,1.41586-1.71329,1.41586H89.49153z"/>
	</g>
	<g>
		<path class="st1" d="M128.56076,15.87554c0.79292,0,1.3194,0.63713,1.16994,1.41584l-4.67097,24.33768
			c-0.14945,0.77871-0.92049,1.41584-1.71341,1.41584h-4.64985c-0.79292,0-1.3194-0.63713-1.16994-1.41584l4.67097-24.33768
			c0.14945-0.77871,0.92049-1.41584,1.71341-1.41584H128.56076z"/>
	</g>
	<g>
		<path class="st1" d="M255.96976,15.87554c0.79294,0,1.31961,0.63717,1.17044,1.41593l-4.66231,24.3375
			c-0.14919,0.77876-0.92001,1.41593-1.71294,1.41593h-4.64984c-0.79294,0-1.31963-0.63717-1.17043-1.41593l4.66252-24.3375
			c0.14919-0.77876,0.92001-1.41593,1.71294-1.41593H255.96976z"/>
	</g>
	<g>
		<path class="st1" d="M269.92001,15.87554c0.79291,0,1.3194,0.63713,1.16995,1.41584l-4.67099,24.33768
			c-0.14944,0.77871-0.92047,1.41584-1.71341,1.41584h-4.6402c-0.79294,0-1.3194-0.63713-1.16995-1.41584l4.67117-24.33769
			c0.14948-0.77871,0.9205-1.41584,1.71344-1.41584H269.92001z"/>
	</g>
	<g>
		<path class="st1" d="M279.43762,43.04878c-0.79294,0-1.31946-0.63714-1.17007-1.41586l6.56909-34.24368
			c0.14938-0.77872,0.92035-1.41586,1.71329-1.41586h4.64609c0.79291,0,1.31946,0.63714,1.17007,1.41586L285.797,41.63292
			c-0.14938,0.77872-0.92035,1.41586-1.71329,1.41586H279.43762z"/>
	</g>
	<g>
		<path class="st1" d="M199.8353,53.00077c-0.79292,0-1.31963-0.63717-1.17044-1.41593l6.56981-34.29489
			c0.14919-0.77876,0.92-1.41593,1.71292-1.41593h4.6461c0.79292,0,1.31961,0.63717,1.17043,1.41593l-6.56981,34.29489
			c-0.14919,0.77876-0.92,1.41593-1.71292,1.41593H199.8353z"/>
	</g>
</g>
<g>
	<path class="st2" d="M67.61488,36.21732"/>
</g>
<g>
	<path class="st2" d="M70.5583,36.21732"/>
</g>
<g>
	<path class="st2" d="M209.23906,36.21732"/>
</g>
<g>
	<path class="st2" d="M212.18246,36.21732"/>
</g>
<g>
	<g>
		<g>
			<path class="st2" d="M43.66414,29.20147c0.44276,0.65779,0.92943,0.55926,1.08147-0.21895L49.15998,6.3884
				c0.15205-0.77821-0.26175-1.05266-0.91954-0.6099l-12.80365,8.6183c-0.65779,0.44277-0.83372,1.34322-0.39095,2.00101
				L43.66414,29.20147z"/>
		</g>
		<g>
			<g>
				<path class="st2" d="M85.90995,26.17951c0,8.79348-5.84933,16.8654-14.64292,16.8654
					c-1.41424,0-2.68403-0.24052-3.62708-0.56766l1.06802-5.56083c0.65415,0.32708,1.42387,0.50025,2.29929,0.50025
					c3.9928,0,7.09068-5.69554,7.09068-10.6695c0-2.01079-0.8275-4.13702-3.26137-4.13702
					c-1.37595,0-2.70351,0.76971-3.80043,2.15512L72.258,18.377c1.66439-1.16414,3.58856-1.76063,5.532-1.76063
					C83.27384,16.61637,85.90995,21.01311,85.90995,26.17951z"/>
			</g>
		</g>
		<g>
			<g>
				<path class="st2" d="M227.57713,26.14104c0,8.82232-5.85895,16.90386-14.68121,16.90386
					c-1.41446,0-2.69388-0.24052-3.63695-0.56766l1.06802-5.54163v-0.02883c0.65416,0.31745,1.4335,0.49067,2.31854,0.49067
					c3.9928,0,7.10033-5.70522,7.10033-10.67919c0-2.02036-0.8275-4.15622-3.27124-4.15622
					c-1.37572,0-2.71292,0.77929-3.80983,2.16469l0.39461-2.03962l0.81764-4.29087l0.00963-0.06735
					c1.66438-1.17378,3.60782-1.77027,5.55125-1.77027C224.9314,16.55865,227.57713,20.96502,227.57713,26.14104z"/>
			</g>
		</g>
		<g>
			<g>
				<path class="st2" d="M117.63013,34.14561l-1.2315,6.43636c-2.1264,1.70285-4.45457,2.45331-6.74423,2.45331
					c-4.23331,0-6.78275-2.38601-6.78275-7.43697c0-1.47196,0.15385-3.0498,0.53883-4.89698l2.5398-13.60391
					c0.13483-0.71194,0.75046-1.22187,1.47202-1.22187h4.78154c0.93319,0,1.64513,0.84664,1.47202,1.77026l-2.32817,12.45903
					c-0.2215,1.19298-0.39461,2.5014-0.39461,3.47312c0,1.74137,0.66402,3.09795,2.67463,3.09795
					C115.02269,36.6759,116.45618,35.78111,117.63013,34.14561z"/>
			</g>
		</g>
		<g>
			<g>
				<path class="st2" d="M145.30937,36.57003l-0.87564,5.87839c-0.81787,0.31744-2.35707,0.52914-3.8002,0.5676l0.09607-0.5195
					l1.06802-5.56089l0.10593-0.5676c0.31734,0.202,0.76009,0.30787,1.3372,0.30787
					C143.90453,36.6759,144.63573,36.6759,145.30937,36.57003z"/>
			</g>
		</g>
		<g>
			<g>
				<polygon class="st2" points="149.73483,17.02043 148.64755,22.68713 144.53003,22.68713 145.34766,18.39626 145.61708,17.02043 
									"/>
			</g>
		</g>
		<g>
			<g>
				<path class="st2" d="M176.57011,26.54272c0,9.50046-6.47542,16.45366-15.49904,16.45366
					c-6.58128,0-10.98628-4.29914-10.98628-10.72163c0-9.02315,6.26276-16.40073,15.49904-16.40073
					C172.53609,15.87401,176.57011,20.65094,176.57011,26.54272z M157.99263,32.11549c0,3.02552,1.48677,5.04253,4.14082,5.04253
					c4.19234,0,6.52882-6.10396,6.52882-10.56237c0-2.38847-1.00897-4.93619-4.08742-4.93619
					C160.1689,21.65945,157.94017,28.08194,157.99263,32.11549z"/>
			</g>
		</g>
		<g>
			<g>
				<path class="st2" d="M178.99638,37.10961c0.27138-0.78313,1.13887-1.19512,1.90955-0.89016
					c1.53261,0.60645,3.56387,1.19241,5.4193,1.19241c2.18048,0,3.29749-1.06349,3.29749-2.33958
					c0-1.27657-0.85136-2.18049-3.24399-3.35052c-3.0309-1.48918-5.53053-3.66967-5.53053-6.91365
					c0-5.37096,4.73268-8.93409,11.43373-8.93409c2.1833,0,4.0359,0.30344,5.37813,0.75157
					c0.75902,0.25341,1.15132,1.08998,0.8983,1.84913l-0.89037,2.67134c-0.25331,0.76-1.07309,1.19614-1.83281,0.94201
					c-1.036-0.34653-2.34804-0.63-3.87241-0.63c-2.02092,0-3.40355,0.90392-3.40355,2.28655
					c0,1.06349,1.06349,1.96789,3.19142,2.97835c2.81783,1.43567,5.79617,3.50961,5.79617,7.12577
					c0,5.95622-5.05278,9.14765-11.91243,9.14765c-2.61761,0-5.13466-0.53648-6.83276-1.34275
					c-0.67691-0.32139-0.99812-1.10163-0.75276-1.80966L178.99638,37.10961z"/>
			</g>
		</g>
		<g>
			<g>
				<path class="st2" d="M248.4257,16.55865l-1.09691,5.70516c-0.32697-0.02883-0.68304-0.05772-1.0295-0.05772
					c-4.81984,0-8.34122,5.90722-8.34122,10.62147c0,2.49177,0.98134,4.20431,3.04974,4.20431
					c1.31816,0,2.80945-0.88516,4.04094-2.88626v0.0192l-1.26039,6.56144c-1.85675,1.68365-3.95404,2.30903-5.93599,2.30903
					c-4.56029,0-7.66803-3.51164-7.66803-8.80311c0-8.56253,5.64755-17.67352,18.14505-17.67352H248.4257z"/>
			</g>
		</g>
		<g>
			<g>
				<path class="st2" d="M278.25266,16.57318c0.25275,0.01316,0.41901,0.22698,0.36951,0.47515l-1.27277,6.38056
					c-0.0495,0.24817-0.29666,0.43847-0.54922,0.42288c0,0-0.32013-0.01975-0.74338-0.01975
					c-2.38596,0-5.08624,2.46089-5.08624,2.46089c-0.18701,0.17046-0.30145,0.10651-0.25427-0.14212l0.18451-0.972
					c0.04718-0.24862,0.12509-0.65532,0.17313-0.90378l0.2197-1.13613c0.04803-0.24846,0.12631-0.65509,0.17395-0.90363
					l0.62537-3.26209c0.04764-0.24854,0.26309-0.56019,0.47876-0.69256c0,0,2.82132-1.73159,4.74548-1.73159
					C277.7886,16.54902,278.25266,16.57318,278.25266,16.57318z"/>
			</g>
		</g>
		<g>
			<g>
				<path class="st2" d="M305.0636,18.51171l-8.83188,8.5337l6.53259,13.81554c0.48105,1.01981-0.2598,2.18396-1.38559,2.18396
					h-5.45496c-0.61563,0-1.17371-0.37523-1.41425-0.94289l-4.38715-10.6695l-1.27942,1.20261l1.14484-5.94569l0.32693-1.70291
					c0.23114-0.29824,0.46204-0.59649,0.69293-0.8851l6.49408-7.68712c0.28842-0.34634,0.71191-0.53876,1.16406-0.53876h5.33002
					C305.38116,15.87554,306.05457,17.54962,305.0636,18.51171z"/>
			</g>
		</g>
	</g>
</g>
<g>
	<path class="st2" d="M209.07013,36.21732"/>
</g>
<g>
	<path class="st2" d="M212.01353,36.21732"/>
</g>
</svg>
