<?xml version="1.0" encoding="utf-8"?>
<!-- Generator: Adobe Illustrator 18.0.0, SVG Export Plug-In . SVG Version: 6.00 Build 0)  -->
<!DOCTYPE svg PUBLIC "-//W3C//DTD SVG 1.1//EN" "http://www.w3.org/Graphics/SVG/1.1/DTD/svg11.dtd">
<svg version="1.1" id="Layer_1" xmlns="http://www.w3.org/2000/svg" xmlns:xlink="http://www.w3.org/1999/xlink" x="0px" y="0px"
	 viewBox="0 76.6 150 13.9" enable-background="new 0 76.6 150 13.9" xml:space="preserve">
<g>
	<path opacity="0.5" fill="#4374FF" d="M150.1,81.7l-0.2,6.8h-150l0.2-9.7c8.3,4,13.1,5.1,27.9,6.5c10.1,0.9,20.3,0.2,30.1-1.9
		l16.2-3.5c11.8-2.6,23.9-3.7,35.9-3c11.3,0.6,20.6,2.5,32,4.6L150.1,81.7z"/>
	<path fill="#FFFFFF" d="M150.1,81.7v8.8H0.1V78.8c5.3,4.1,13.3,7.7,28.1,8.9c10.1,0.8,20.3,0.2,30.1-1.7l26.7-5
		c18.7-3.5,38.3-3.7,57.1-0.7L150.1,81.7z"/>
</g>
</svg>
