<?xml version="1.0" encoding="utf-8"?>
<!-- Generator: Adobe Illustrator 23.0.1, SVG Export Plug-In . SVG Version: 6.00 Build 0)  -->
<svg version="1.1" id="Layer_1" xmlns="http://www.w3.org/2000/svg" xmlns:xlink="http://www.w3.org/1999/xlink" x="0px" y="0px"
	 width="1920px" height="1080px" viewBox="0 0 1920 1080" style="enable-background:new 0 0 1920 1080;" xml:space="preserve">
<style type="text/css">
	.st0{fill:#FFFFFF;enable-background:new    ;}
	.st1{opacity:0.1;fill:#FFFFFF;}
</style>
<path class="st0" d="M1920,1004.1v75.9H0v-83.7c67.9-14.9,329.4-65.2,611.6-29.2c51.9,6.6,104.4,16.2,156.6,29.4
	c0,0,74.2,17.3,184.5,34.6c129.5,20.2,308.8,40.3,476.2,31.9C1727.2,1048.1,1849.6,1003.1,1920,1004.1z"/>
<path class="st1" d="M1920,925.9v145.2H0V942.7c48.5-7.9,190.8-29.3,298.1-26.6c128,3.3,198.3,13.6,313.5,42.1c3,0.7,6,1.5,9.1,2.3
	c68.8,17.2,186.8,43.9,332,61.7c109.7,13.5,234.9,21.8,366.1,17.3C1618.9,1029,1755.6,930.4,1920,925.9z"/>
</svg>
