<?xml version="1.0" encoding="utf-8"?>
<!-- Generator: Adobe Illustrator 23.0.1, SVG Export Plug-In . SVG Version: 6.00 Build 0)  -->
<svg version="1.1" id="Capa_1" xmlns="http://www.w3.org/2000/svg" xmlns:xlink="http://www.w3.org/1999/xlink" x="0px" y="0px"
	 viewBox="0 0 512 512" style="enable-background:new 0 0 512 512;" xml:space="preserve">
<style type="text/css">
	.st0{fill:#2F2F82;}
	.st1{opacity:0.29;fill:#8E3DCC;}
</style>
<path class="st0" d="M151.649,118.25498c0.231-2.485,0.731-4.923,1.496-7.293c2.325-3.234,4.218-6.798,5.59399-10.608
	c6.509-8.382,16.621-13.354,27.261-13.354h28c4.66299,0,9.181,0.911,13.429,2.707c3.817,1.617,8.216-0.172,9.82899-3.986
	s-0.17101-8.215-3.98599-9.828c-0.99699-0.422-2.004-0.809-3.021-1.163c8.166-7.912,13.24899-18.988,13.24899-31.23
	c0-23.986-19.51401-43.5-43.5-43.5s-43.5,19.514-43.5,43.5c0,12.253,5.093,23.338,13.272,31.252
	c-3.125,1.088-6.13499,2.485-8.979,4.167c-3.23199-20.817-21.27701-36.8-42.984-36.8c-23.986,0-43.5,19.514-43.5,43.5
	c0,12.244,5.085,23.322,13.254,31.234c-1.965,0.682-3.888,1.489-5.757,2.417c-5.567-2.593-11.77-4.042-18.305-4.042
	c-23.986,0-43.5,19.514-43.5,43.49999c0,12.246,5.087,23.325,13.257,31.23801C13.917,196.70399,0,215.12099,0,236.72899V270.729
	c0,17.36899,14.131,31.5,31.5,31.5h20.183c4.142,0,7.5-3.35699,7.5-7.5s-3.358-7.5-7.5-7.5H31.5c-9.098,0-16.5-7.40201-16.5-16.5
	v-34.00002c0-19.02299,15.477-34.5,34.5-34.5h28c19.023,0,34.5,15.47701,34.5,34.5V270.729c0,9.09799-7.402,16.5-16.5,16.5H84.055
	c-4.142,0-7.5,3.35699-7.5,7.5s3.358,7.5,7.5,7.5H95.5c17.369,0,31.5-14.13101,31.5-31.5v-34.00002
	c0-2.58701-0.2-5.12801-0.584-7.608h23.394c17.369,0,31.5-14.131,31.5-31.5v-10.621H232c17.369,0,31.5-14.131,31.5-31.5v-34
	c0-6.584-1.27301-12.982-3.785-19.017c-1.59201-3.825-5.98199-5.636-9.80701-4.042c-3.82401,1.592-5.634,5.982-4.04199,9.806
	c1.748,4.198,2.634,8.657,2.634,13.253v34c0,9.09799-7.40199,16.5-16.5,16.5h-50.69v-8.38
	c-0.27901-4.961-1.601-16.48199-9.63901-28.00999c-6.981-10.012-15.606-15.122-20.022-17.355L151.649,118.25498z M200,14.99999
	c15.715,0,28.5,12.785,28.5,28.5s-12.785,28.5-28.5,28.5s-28.5-12.785-28.5-28.5S184.285,14.99999,200,14.99999z M117.808,57.11899
	c15.715,0,28.5,12.785,28.5,28.5c0,2.709-0.38,5.332-1.09,7.817c-2.216,3.208-4.03799,6.668-5.427,10.302
	c-5.23199,6.336-13.144,10.381-21.983,10.381c-15.715,0-28.5-12.785-28.5-28.5S102.093,57.11899,117.808,57.11899z M63.5,130.22899
	c15.715,0,28.5,12.785,28.5,28.5s-12.785,28.5-28.5,28.5s-28.5-12.786-28.5-28.5S47.785,130.22899,63.5,130.22899z
	 M166.31,197.61998c0,9.09799-7.40199,16.5-16.5,16.5h-28.282c-5.784-11.218-15.731-19.955-27.786-24.15399
	c8.171-7.91299,13.257-18.992,13.257-31.23801c0-11.009-4.111-21.076-10.879-28.746c2.507-0.571,5.085-0.862,7.689-0.862h28.00001
	c3.411,0,6.78,0.49699,10.01401,1.478c14.646,4.44,24.48599,17.711,24.48599,33.022L166.31,197.61998z"/>
<circle class="st1" cx="199.86005" cy="44.19002" r="28.5"/>
<path class="st1" d="M166.17004,164.31001v34c0,9.08997-7.41003,16.5-16.5,16.5H121.38
	c-5.77997-11.22003-15.72998-19.96002-27.77997-24.16003c8.16998-7.90997,13.26001-18.98999,13.26001-31.23999
	c0-11-4.12006-21.07001-10.88-28.73999c2.5-0.57001,5.07996-0.85999,7.69-0.85999h28c3.40997,0,6.77997,0.48999,10.00995,1.46997
	C156.33002,135.71999,166.17004,149.00002,166.17004,164.31001z"/>
<circle class="st1" cx="63.36005" cy="159.42" r="28.5"/>
<path class="st0" d="M508.07001,311.16998c-1.58997-3.83002-5.97998-5.64001-9.81-4.03998
	c-3.82001,1.58997-5.63,5.97998-4.03998,9.79999c1.75,4.20001,2.64001,8.65997,2.64001,13.26001v34
	c0,9.08997-7.41003,16.5-16.5,16.5h-50.69v-8.38c-0.28003-4.96002-1.60004-16.48999-9.64001-28.01001
	c-6.97003-10.01001-15.60004-15.12-20.02002-17.35999c0.22998-2.48004,0.72998-4.92004,1.48999-7.29004
	c2.33002-3.23999,4.22003-6.79999,5.59003-10.60999c6.51001-8.38,16.63-13.34998,27.27002-13.34998h28
	c4.65997,0,9.17999,0.90997,13.42999,2.69995c3.81,1.62006,8.20996-0.16998,9.82001-3.97998
	c1.62-3.82001-0.17004-8.21997-3.98004-9.83002c-1-0.41998-2.01001-0.81-3.01996-1.15997
	c8.15997-7.91998,13.25-18.98999,13.25-31.22997c0-23.99005-19.52002-43.5-43.5-43.5c-23.99005,0-43.5,19.50995-43.5,43.5
	c0,12.24998,5.08997,23.32994,13.26996,31.24998c-3.13,1.08997-6.14001,2.47998-8.97998,4.16998
	c-3.22998-20.82001-21.28003-36.79997-42.98999-36.79997c-23.98004,0-43.5,19.50999-43.5,43.49998
	c0,12.23999,5.08997,23.32001,13.26001,31.22998c-1.97003,0.67999-3.89001,1.48999-5.76001,2.41998
	c-5.57001-2.59998-11.77002-4.04999-18.29999-4.04999c-23.99005,0-43.5,19.52002-43.5,43.5c0,12.25,5.07996,23.33002,13.25,31.23999
	c-19.34003,6.73999-33.25,25.16003-33.25,46.77002v34c0,17.35999,14.12994,31.5,31.5,31.5h20.17999c4.13995,0,7.5-3.35999,7.5-7.5
	c0-4.15002-3.36005-7.5-7.5-7.5h-20.17999c-9.10004,0-16.5-7.40997-16.5-16.5v-34c0-19.03003,15.46997-34.5,34.5-34.5h28
	c19.01996,0,34.5,15.46997,34.5,34.5v34c0,9.09003-7.41003,16.5-16.5,16.5h-11.45001c-4.14001,0-7.5,3.34998-7.5,7.5
	c0,4.14001,3.35999,7.5,7.5,7.5h11.45001c17.37,0,31.5-14.14001,31.5-31.5v-34c0-2.59003-0.20001-5.13-0.59003-7.60999h23.40002
	c17.37,0,31.5-14.13,31.5-31.5v-10.62h50.69c17.37,0,31.5-14.13,31.5-31.5v-34
	C511.86005,323.59998,510.58002,317.19995,508.07001,311.16998z M448.36005,223.69002c15.70996,0,28.5,12.77997,28.5,28.5
	c0,15.70995-12.79004,28.49998-28.5,28.49998c-15.72003,0-28.5-12.79004-28.5-28.49998
	C419.86005,236.46999,432.64001,223.69002,448.36005,223.69002z M366.16003,265.81c15.71997,0,28.5,12.77997,28.5,28.5
	c0,2.70001-0.38,5.32996-1.09003,7.81c-2.20996,3.20996-4.02997,6.66998-5.41998,10.29999
	C382.92004,318.76001,375,322.81,366.16003,322.81c-15.71002,0-28.5-12.79004-28.5-28.5
	C337.66003,278.58997,350.45001,265.81,366.16003,265.81z M311.86005,395.91998c-15.72003,0-28.5-12.78998-28.5-28.5
	c0-15.72003,12.77997-28.5,28.5-28.5c15.70996,0,28.5,12.77997,28.5,28.5C340.36005,383.13,327.57001,395.91998,311.86005,395.91998
	z M414.67004,406.31c0,9.08997-7.41003,16.5-16.5,16.5H369.88c-5.77997-11.22003-15.72998-19.96002-27.77997-24.16003
	c8.16998-7.90997,13.26001-18.98999,13.26001-31.23999c0-11-4.12006-21.07001-10.88-28.73999
	c2.5-0.57001,5.07996-0.85999,7.69-0.85999h28c3.40997,0,6.77997,0.48999,10.00995,1.46997
	c14.65002,4.44,24.49005,17.72003,24.49005,33.03003V406.31z"/>
<circle class="st1" cx="448.36005" cy="252.19002" r="28.5"/>
<path class="st1" d="M414.67004,372.31v34c0,9.08997-7.41003,16.5-16.5,16.5H369.88
	c-5.77997-11.22003-15.72998-19.96002-27.77997-24.16003c8.16998-7.90997,13.26001-18.98999,13.26001-31.23999
	c0-11-4.12006-21.07001-10.88-28.73999c2.5-0.57001,5.07996-0.85999,7.69-0.85999h28c3.40997,0,6.77997,0.48999,10.00995,1.46997
	C404.83002,343.71997,414.67004,357,414.67004,372.31z"/>
<circle class="st1" cx="311.86005" cy="367.41998" r="28.5"/>
<path class="st0" d="M330.89401,87.31898c41.823,0,76.51498,31.111,82.14999,71.40601l-5.755-4.25101
	c-3.332-2.463-8.02701-1.757-10.48901,1.576c-2.461,3.332-1.755,8.02699,1.577,10.48801l18.51199,13.674
	c1.298,0.96001,2.862,1.468,4.45599,1.468c0.39001,0,0.78101-0.03,1.17099-0.092c1.98401-0.313,3.759-1.41,4.92801-3.04401
	l14.17899-19.813c2.41101-3.368,1.634-8.05299-1.73401-10.464c-3.36899-2.41-8.05301-1.634-10.46399,1.735l-2.112,2.951
	c-8.19901-45.78-48.315-80.635-96.418-80.635c-4.142,0-7.5,3.357-7.5,7.5s3.35599,7.501,7.49899,7.501H330.89401z"/>
<path class="st0" d="M157.347,412.02499c-2.463-3.33301-7.159-4.03799-10.489-1.57599c-3.332,2.461-4.03799,7.15601-1.577,10.48801
	l4.25101,5.755c-40.295-5.63501-71.406-40.327-71.406-82.14899c0-4.14301-3.358-7.5-7.5-7.5s-7.5,3.35699-7.5,7.5
	c0,48.103,34.854,88.21802,80.634,96.41699l-2.951,2.112c-3.368,2.41101-4.145,7.09601-1.73399,10.46399
	c1.464,2.047,3.76801,3.13699,6.105,3.13699c1.511,0,3.036-0.45599,4.358-1.401l19.814-14.17899
	c1.633-1.16901,2.73-2.944,3.043-4.92899s-0.18201-4.01199-1.375-5.62701L157.347,412.02499z"/>
</svg>
