<?xml version="1.0" encoding="utf-8"?>
<!-- Generator: Adobe Illustrator 23.0.1, SVG Export Plug-In . SVG Version: 6.00 Build 0)  -->
<svg version="1.1" id="Layer_1" xmlns="http://www.w3.org/2000/svg" xmlns:xlink="http://www.w3.org/1999/xlink" x="0px" y="0px"
	 viewBox="0 0 512 512" style="enable-background:new 0 0 512 512;" xml:space="preserve">
<style type="text/css">
	.st0{opacity:0.29;fill:#8E3DCC;}
	.st1{fill:#2F2F82;}
</style>
<path class="st0" d="M190.98096,475.80453c-9.60999,5.56-21.85999,2.14996-27.32001-7.32001l-50-86.60999l34.64001-20
	c43.07001,74.59998,49.21997,85.25,49.92999,86.47998v0.01001c0,0.01001,0.01001,0.01001,0.01996,0.02002
	c0,0.00995,0,0.00995,0.01001,0.01996c0.01001,0.02002,0.03003,0.06,0.04004,0.07001s0.01001,0.02002,0.01001,0.02002
	C203.83093,458.04453,200.56097,470.27451,190.98096,475.80453z"/>
<polygon class="st0" points="366.15094,282.80453 191.69092,317.02451 138.64093,225.14452 250.55096,82.58452 "/>
<path class="st1" d="M497.13672,57.74608l-55.72266,31.00781c-4.82422,2.6875-6.5625,8.77734-3.875,13.60156
	c2.67969,4.82031,8.76563,6.56641,13.60156,3.875l55.71875-31.00781c4.82813-2.6875,6.5625-8.77734,3.875-13.60156
	C508.05078,56.79296,501.96094,55.05858,497.13672,57.74608z"/>
<path class="st1" d="M491.29297,161.31639l-38.63672-10.35156c-5.33594-1.42969-10.82031,1.73438-12.25,7.07031
	s1.73828,10.81641,7.07422,12.24609l38.64063,10.35156c5.36719,1.44141,10.82422-1.77344,12.24609-7.07031
	C499.79688,168.22655,496.62891,162.74217,491.29297,161.31639z"/>
<path class="st1" d="M394.19922,21.41405l-10.36328,38.64063c-1.42969,5.33593,1.73438,10.8164,7.07031,12.25
	c5.33203,1.42578,10.81641-1.73047,12.25-7.07031l10.35938-38.64063c1.42969-5.33594-1.73438-10.82031-7.07031-12.25
	C401.11328,12.91405,395.62891,16.07811,394.19922,21.41405z"/>
<path class="st1" d="M95.98438,391.25391l50.35938,87.23047c10.86719,18.84375,35.3125,25.82031,54.64453,14.64453
	c19.12891-11.05469,25.70313-35.49609,14.63672-54.64063l-30-51.96875l16.63672-51.18359
	c1.55078-0.30078,11.74609-2.30078,191.53906-37.57031c22.22656-1.20703,35.54297-25.51563,24.31641-44.94923l-33.23438-57.5625
	l21.23828-32.16797c2.08594-3.16406,2.21094-7.23047,0.31641-10.51172l-20-34.64063
	c-1.89453-3.28125-5.49219-5.20313-9.26172-4.98047l-38.47266,2.30859l-36.89453-63.90625
	c-5.34375-9.25781-14.91797-14.86328-25.60547-14.99609c-0.12891-0.00391-0.25391-0.00391-0.38281-0.00391
	c-10.32813,0-19.70313,5.14063-25.25781,13.83203L119.92969,216.60155l-84.92578,49.03127
	C1.60156,284.91016-9.96875,327.76172,9.38281,361.25391C27.0625,391.87891,64.33594,403.92578,95.98438,391.25391z
	 M198.30859,448.49219c5.52344,9.55469,2.25391,21.78125-7.32813,27.31641c-9.61328,5.55859-21.85547,2.14453-27.31641-7.32031
	l-50-86.61328l34.64063-20C206.17188,462.11719,197.37891,446.88672,198.30859,448.49219z M267.28906,61.15233
	c2.68359-4.39063,6.94141-4.84375,8.66797-4.79688c1.70703,0.01953,5.96094,0.55078,8.52734,4.99609l116.3125,201.46486
	c3.78906,6.55859-0.81641,14.80469-8.41406,14.99219c-1.36328,0.03125-1.99219,0.27734-5.48438,0.92969L263.86328,65.6328
	C266.44531,62.31249,266.77734,61.99218,267.28906,61.15233z M250.55469,82.58592l115.59766,200.22267l-174.46094,34.21875
	l-53.04688-91.87892L250.55469,82.58592z M26.70313,351.25391c-4.39063-7.59766-6.71094-16.22266-6.71094-24.94922
	c0-17.83594,9.58594-34.44531,25.01172-43.35156l77.94141-45.00002l50,86.60158l-77.94141,45.00391
	C71.125,383.33984,40.48828,375.12891,26.70313,351.25391z"/>
</svg>
